<svg width="459" height="328" viewBox="0 0 459 328" fill="none" xmlns="http://www.w3.org/2000/svg">
<rect x="94" y="150" width="274" height="178" fill="#504E80" fill-opacity="0.65"/>
<rect x="367" y="217" width="92" height="111" fill="#504E80"/>
<rect y="213" width="94" height="115" fill="#504E80"/>
<g clip-path="url(#clip0_2090_112)">
<path d="M160.515 108.814C160.515 108.814 166.085 121.991 157.257 138.876L154.516 137.174C154.516 137.174 158.694 124.766 151.301 109.091L160.515 108.814Z" fill="#F8B78F"/>
<path d="M159.294 134.406C158.695 135.931 158.015 137.423 157.257 138.876L154.516 137.174C154.516 137.174 155.014 135.684 155.362 133.094C156.528 132.682 158.755 133.783 159.294 134.406Z" fill="white"/>
<path d="M157.257 138.876L159.48 143.718C159.48 143.718 160.389 144.929 159.571 146.624C159.571 146.624 153.218 143.155 151.273 139.865L154.516 137.171L157.257 138.876Z" fill="#F8B78F"/>
<path d="M157.257 138.876L159.48 143.718C159.48 143.718 160.389 144.929 159.571 146.624C159.571 146.624 153.218 143.155 151.273 139.865L154.516 137.171L157.257 138.876Z" fill="white"/>
<path d="M154.516 137.174L151.275 139.869C153.219 143.159 159.572 146.627 159.572 146.627C160.39 144.94 159.482 143.722 159.482 143.722L157.258 138.88C157.258 138.88 155.289 138.79 154.516 137.174Z" fill="#0063A1"/>
<path d="M152.168 139.126L151.273 139.869C153.218 143.159 159.571 146.627 159.571 146.627C159.673 146.417 159.754 146.198 159.814 145.972C159.814 145.972 152.692 141.646 152.168 139.126Z" fill="white"/>
<path d="M157.728 139.868C157.24 139.698 156.559 139.747 156.136 140.049C155.892 140.225 156.158 140.605 156.401 140.431C156.57 140.329 156.758 140.264 156.954 140.24C157.149 140.215 157.348 140.232 157.536 140.289C157.817 140.386 158.013 139.966 157.728 139.868Z" fill="white"/>
<path d="M158.08 140.67C157.511 140.611 156.983 140.634 156.453 140.859C156.176 140.98 156.331 141.411 156.611 141.295C157.052 141.116 157.532 141.058 158.003 141.127C158.301 141.157 158.381 140.701 158.08 140.67Z" fill="white"/>
<path d="M158.427 141.532C157.912 141.513 157.336 141.485 156.908 141.822C156.673 142.007 156.938 142.387 157.173 142.202C157.53 141.922 158.041 141.978 158.469 141.992C158.769 142.003 158.723 141.543 158.427 141.532Z" fill="white"/>
<path d="M158.84 142.409C158.342 142.361 157.839 142.439 157.378 142.635C157.101 142.756 157.256 143.187 157.535 143.071C157.92 142.901 158.342 142.83 158.762 142.864C159.059 142.889 159.138 142.433 158.839 142.409H158.84Z" fill="white"/>
<path d="M145.626 109.769C145.626 109.769 148.422 123.788 136.362 138.579L134.021 136.366C134.021 136.366 140.619 125.042 136.538 108.217L145.626 109.769Z" fill="#F8B78F"/>
<path d="M139.264 134.6C138.369 135.974 137.402 137.3 136.366 138.573L134.024 136.36C134.024 136.36 134.813 135 135.677 132.531C136.902 132.359 138.862 133.881 139.264 134.6Z" fill="white"/>
<path d="M136.366 138.573L137.566 143.766C137.566 143.766 138.211 145.137 137.068 146.627C137.068 146.627 131.544 141.966 130.303 138.355L134.024 136.36L136.366 138.573Z" fill="#F8B78F"/>
<path d="M136.366 138.573L137.566 143.766C137.566 143.766 138.211 145.137 137.068 146.627C137.068 146.627 131.544 141.966 130.303 138.355L134.024 136.36L136.366 138.573Z" fill="white"/>
<path d="M134.024 136.36L130.309 138.359C131.55 141.97 137.074 146.632 137.074 146.632C138.217 145.142 137.573 143.77 137.573 143.77L136.372 138.577C136.372 138.577 134.453 138.098 134.024 136.36Z" fill="#0063A1"/>
<path d="M131.329 137.804L130.309 138.36C131.55 141.97 137.074 146.632 137.074 146.632C137.217 146.447 137.342 146.248 137.446 146.038C137.446 146.038 131.335 140.379 131.329 137.804Z" fill="white"/>
<path d="M136.628 139.639C136.188 139.376 135.506 139.287 135.031 139.5C134.757 139.621 134.941 140.047 135.214 139.925C135.399 139.859 135.597 139.833 135.793 139.848C135.989 139.863 136.18 139.919 136.354 140.012C136.61 140.164 136.886 139.791 136.628 139.639Z" fill="white"/>
<path d="M136.811 140.495C136.265 140.323 135.745 140.241 135.179 140.356C134.884 140.415 134.951 140.872 135.244 140.813C135.713 140.727 136.196 140.765 136.644 140.926C136.929 141.015 137.098 140.584 136.811 140.495Z" fill="white"/>
<path d="M136.978 141.408C136.475 141.286 135.918 141.145 135.43 141.389C135.161 141.524 135.344 141.95 135.612 141.814C136.02 141.612 136.51 141.767 136.924 141.867C137.217 141.938 137.264 141.478 136.978 141.408Z" fill="white"/>
<path d="M137.204 142.354C136.725 142.209 136.218 142.185 135.727 142.285C135.432 142.344 135.499 142.802 135.794 142.743C136.206 142.654 136.633 142.668 137.037 142.785C137.323 142.869 137.493 142.438 137.204 142.354Z" fill="white"/>
<path d="M152.824 67.3592H145.188V70.9895H152.824V67.3592Z" fill="#FBB88E"/>
<path d="M152.824 68.4365V67.3592H145.188V69.5708C148.189 69.8104 150.75 69.2972 152.824 68.4365Z" fill="#E69D82"/>
<path d="M150.169 112.848L153.059 121.001C158.251 123.447 163.688 119.586 163.688 119.586L161.405 99.3525H136.606L135.265 119.586C135.265 119.586 142.035 123.26 147.226 120.813L148.554 112.848H150.169Z" fill="#0063A1"/>
<path d="M161.148 74.0144C160.424 71.7145 158.621 71.3453 158.621 71.3453L151.884 70.0222H146.129L139.386 71.3453C139.386 71.3453 137.583 71.7181 136.859 74.0144C136.416 86.9486 136.901 89.9687 136.606 99.3525C136.606 99.3525 141.368 100.816 149.479 100.603C157.592 100.816 161.405 99.3525 161.405 99.3525C161.093 93.9198 161.798 87.256 161.148 74.0144Z" fill="#FBB88E"/>
<path d="M118.666 54.8499C118.666 54.8499 125.774 67.0674 138.826 72.9989C138.826 72.9989 140.096 78.1652 135.487 78.2197C135.487 78.2197 121.475 71.3792 115.941 55.8328C115.941 55.8328 116.13 52.9724 118.666 54.8499Z" fill="#F8B78F"/>
<path d="M113.006 50.8408C112.949 52.1885 113.223 53.5298 113.806 54.7483C113.806 54.7483 114.659 56.5301 115.945 56.7976C115.945 56.7976 118.115 57.559 119.086 55.5787C119.33 55.0763 119.191 54.4481 119.159 53.9179C119.159 53.8803 119.159 53.8452 119.152 53.8089C119.122 53.1952 119.13 52.573 119.307 51.9774C119.602 50.9788 118.819 50.773 118.819 50.773C118.454 50.6616 118.088 50.9267 118.003 51.2826C117.895 51.7232 117.805 52.1735 117.705 52.6142C117.422 53.2424 117.142 52.8127 117.142 52.8127C116.791 51.4012 116.699 49.5964 116.699 49.5964C116.547 48.9694 116.023 49.025 116.023 49.025C116.023 49.025 115.473 48.8846 115.455 50.4679C115.455 50.4679 115.477 51.9048 115.908 53.1734C115.501 52.4156 115.299 50.3033 115.299 50.3033C115.421 49.3143 114.637 49.4402 114.637 49.4402C113.773 49.7344 114.219 51.5138 114.219 51.5138C114.575 53.1056 114.663 53.7762 114.663 53.7762L114.089 51.1955C114.089 51.1955 114.037 50.2634 113.552 50.2912C113.552 50.2912 113.122 50.2271 113.006 50.8408Z" fill="#F8B78F"/>
<path d="M142.819 79.2462C142.819 79.2462 140.792 82.9636 136.391 81.1491L128.168 75.1245C128.168 75.1245 128.26 70.2208 132.212 67.8325C132.212 67.8325 137.553 70.7062 139.874 71.8525C142.608 73.2022 144.301 75.9161 142.819 79.2462Z" fill="#007DC3"/>
<path d="M179.326 54.8499C179.326 54.8499 174.182 65.6463 161.13 71.5777C161.13 71.5777 160.821 77.2271 164.204 78.1652C164.204 78.1652 179.36 66.3569 182.05 55.8328C182.05 55.8328 181.861 52.9724 179.326 54.8499Z" fill="#F8B78F"/>
<path d="M184.985 50.8407C185.042 52.188 184.768 53.5287 184.186 54.747C184.186 54.747 183.333 56.5289 182.045 56.7964C182.045 56.7964 179.876 57.5578 178.905 55.5774C178.662 55.0751 178.799 54.4468 178.832 53.9166C178.832 53.8791 178.832 53.844 178.832 53.8077C178.863 53.1939 178.855 52.5718 178.677 51.9762C178.384 50.9775 179.165 50.7717 179.165 50.7717C179.531 50.6604 179.896 50.9255 179.98 51.2814C180.088 51.722 180.178 52.1723 180.278 52.6129C180.561 53.2412 180.842 52.8114 180.842 52.8114C181.193 51.4 181.284 49.5951 181.284 49.5951C181.435 48.9681 181.959 49.0214 181.959 49.0214C181.959 49.0214 182.509 48.881 182.527 50.4643C182.527 50.4643 182.505 51.9011 182.073 53.1697C182.482 52.412 182.683 50.2997 182.683 50.2997C182.561 49.3107 183.346 49.4366 183.346 49.4366C184.211 49.7331 183.766 51.5126 183.766 51.5126C183.409 53.1044 183.323 53.775 183.323 53.775L183.896 51.1942C183.896 51.1942 183.947 50.2621 184.432 50.29C184.438 50.2912 184.865 50.227 184.985 50.8407Z" fill="#F8B78F"/>
<path d="M155.175 79.2462C155.175 79.2462 157.206 82.9636 161.603 81.1491L169.827 75.1245C169.827 75.1245 169.735 70.2208 165.782 67.8325C165.782 67.8325 160.442 70.7062 158.12 71.8525C155.384 73.2022 153.69 75.9161 155.175 79.2462Z" fill="#007DC3"/>
<path d="M174.678 46.2845C174.678 58.6194 163.295 68.6193 149.252 68.6193C135.21 68.6193 123.828 58.6194 123.828 46.2845C123.828 33.9495 135.21 23.9509 149.254 23.9509C163.297 23.9509 174.678 33.9495 174.678 46.2845Z" fill="#F8B78F"/>
<path d="M120.632 50.7596C120.754 52.7812 122.181 54.3379 123.811 54.2374C125.44 54.1369 126.658 52.4217 126.533 50.3989C126.407 48.3762 124.985 46.8207 123.354 46.9212C121.723 47.0216 120.507 48.7405 120.632 50.7596Z" fill="#F8B78F"/>
<path d="M122.083 48.0566C122.25 47.9356 122.594 47.8847 122.804 47.8811C123.881 47.8593 124.66 49.686 123.572 49.9511C123.148 50.3554 123.544 50.8686 123.544 50.8686C123.89 51.3165 124.357 51.9581 124.217 52.5633C124.131 52.9265 123.747 53.1008 123.406 53.1686C123.133 53.2267 123.093 52.9979 123.311 52.8974C123.477 52.8174 123.622 52.7011 123.736 52.5573C123.747 52.5355 123.762 52.5161 123.772 52.4979C123.782 52.4837 123.791 52.4687 123.8 52.4532C123.836 52.3696 123.845 52.2769 123.825 52.1881C123.582 52.3624 123.17 52.3854 122.993 52.1348C122.804 51.8636 122.975 51.4569 122.923 51.1531C122.876 50.9425 122.801 50.739 122.7 50.5478C122.253 49.64 123.148 49.5346 123.148 49.5346C123.257 49.5413 123.366 49.5551 123.473 49.5758C123.935 49.3422 123.473 48.5953 123.199 48.467C123.048 48.3865 122.875 48.3556 122.705 48.3789C122.535 48.4022 122.378 48.4784 122.254 48.5965C122.021 48.8793 121.898 49.2359 121.908 49.6012C121.911 50.0249 121.99 50.4447 122.142 50.8408C122.229 51.0623 122.339 51.325 122.427 51.5489C122.526 51.8031 122.254 51.8975 122.153 51.6433C121.943 51.1095 121.544 50.3203 121.486 49.5928C121.437 48.9875 121.567 48.4198 122.083 48.0566Z" fill="#E69D82"/>
<path d="M177.875 50.7596C177.753 52.7812 176.326 54.3379 174.696 54.2374C173.067 54.1369 171.849 52.4217 171.976 50.3989C172.103 48.3762 173.523 46.8207 175.154 46.9212C176.784 47.0216 178 48.7405 177.875 50.7596Z" fill="#F8B78F"/>
<path d="M176.424 48.0566C176.255 47.9356 175.913 47.8847 175.703 47.8811C174.626 47.8593 173.848 49.686 174.935 49.9511C175.361 50.3554 174.963 50.8686 174.963 50.8686C174.617 51.3165 174.15 51.9581 174.293 52.5633C174.376 52.9265 174.76 53.1008 175.1 53.1686C175.374 53.2267 175.414 52.9979 175.196 52.8974C175.03 52.8174 174.885 52.7011 174.771 52.5573C174.76 52.5367 174.748 52.5169 174.734 52.4979C174.724 52.4822 174.717 52.4677 174.709 52.4532C174.672 52.3697 174.663 52.277 174.682 52.1881C174.932 52.3624 175.338 52.3854 175.514 52.1348C175.703 51.8636 175.53 51.4569 175.585 51.1531C175.631 50.9422 175.706 50.7385 175.808 50.5478C176.255 49.64 175.361 49.5346 175.361 49.5346C175.252 49.541 175.143 49.5547 175.036 49.5758C174.572 49.3422 175.036 48.5953 175.308 48.467C175.459 48.3865 175.632 48.3556 175.802 48.3789C175.972 48.4022 176.13 48.4784 176.253 48.5965C176.486 48.8792 176.61 49.2358 176.6 49.6012C176.597 50.0248 176.518 50.4444 176.368 50.8408C176.281 51.0623 176.17 51.325 176.081 51.5489C175.981 51.8031 176.255 51.8975 176.357 51.6433C176.565 51.1095 176.966 50.3203 177.023 49.5928C177.07 48.9875 176.942 48.4198 176.424 48.0566Z" fill="#E69D82"/>
<path d="M151.081 54.2894C151.025 54.2894 150.97 54.2785 150.918 54.2573C150.866 54.236 150.819 54.2049 150.78 54.1657C150.74 54.1265 150.709 54.0799 150.688 54.0286C150.666 53.9774 150.655 53.9224 150.655 53.867C150.655 53.4978 150.508 53.1437 150.245 52.8826C149.982 52.6216 149.625 52.4749 149.254 52.4749C148.882 52.4749 148.525 52.6216 148.262 52.8826C148 53.1437 147.852 53.4978 147.852 53.867C147.852 53.9793 147.807 54.0871 147.727 54.1666C147.647 54.246 147.538 54.2906 147.425 54.2906C147.312 54.2906 147.204 54.246 147.124 54.1666C147.044 54.0871 146.999 53.9793 146.999 53.867C146.992 53.5689 147.045 53.2725 147.155 52.9951C147.265 52.7177 147.429 52.4649 147.639 52.2516C147.849 52.0384 148.1 51.8689 148.376 51.7532C148.653 51.6375 148.95 51.5779 149.251 51.5779C149.551 51.5779 149.848 51.6375 150.125 51.7532C150.401 51.8689 150.652 52.0384 150.862 52.2516C151.072 52.4649 151.236 52.7177 151.346 52.9951C151.456 53.2725 151.51 53.5689 151.503 53.867C151.502 53.9783 151.458 54.085 151.379 54.1641C151.3 54.2431 151.193 54.2882 151.081 54.2894Z" fill="#E89D7F"/>
<path opacity="0.3" d="M131.78 53.7072C131.78 54.9637 133.41 55.9817 135.426 55.9817C137.442 55.9817 139.072 54.9637 139.072 53.7072C139.072 52.4507 137.44 51.4315 135.426 51.4315C133.412 51.4315 131.78 52.4507 131.78 53.7072Z" fill="#F27383"/>
<path opacity="0.3" d="M159.434 53.7072C159.434 54.9637 161.065 55.9817 163.079 55.9817C165.092 55.9817 166.727 54.9637 166.727 53.7072C166.727 52.4507 165.091 51.4315 163.079 51.4315C161.066 51.4315 159.434 52.4507 159.434 53.7072Z" fill="#F27383"/>
<path d="M145.188 27.8511C163.136 25.7145 170.152 37.184 170.152 37.184C173.078 40.6448 173.019 48.3471 173.019 48.3471H173.77C174.002 47.1427 174.67 46.9163 174.67 46.9163C174.67 46.9163 175.537 46.7554 176.672 47.57C180.729 16.2848 158.977 11.5518 158.977 11.5518C128.128 3.37971 122.114 27.0933 122.114 27.0933C119.991 31.9801 119.035 38.714 121.992 47.4393C121.992 47.4393 122.194 46.9696 123.841 46.9454C123.803 46.9454 124.686 44.0608 124.719 43.8853C125.993 37.0871 131.783 34.5124 131.783 34.5124C135.927 31.0625 135.927 26.9553 135.927 26.9517C135.927 26.948 138.399 28.6597 145.188 27.8511Z" fill="#743B21"/>
<path d="M135.413 41.1943C136.181 40.468 137.139 40.1387 138.173 39.9947C138.638 39.9305 138.883 39.3507 138.772 38.9488C138.637 38.4574 138.182 38.2903 137.72 38.3545C136.402 38.5155 135.169 39.0887 134.201 39.9911C133.4 40.75 134.614 41.9509 135.413 41.1943Z" fill="#743B21"/>
<path d="M163.098 41.1943C162.33 40.468 161.372 40.1387 160.336 39.9947C159.874 39.9305 159.627 39.3507 159.739 38.9488C159.875 38.4574 160.33 38.2903 160.793 38.3545C162.111 38.5153 163.342 39.0885 164.31 39.9911C165.111 40.75 163.899 41.9509 163.098 41.1943Z" fill="#743B21"/>
<path d="M138.156 51.7668C137.744 51.7668 137.744 52.3987 138.156 52.3987C138.568 52.3987 138.568 51.7668 138.156 51.7668Z" fill="#C88972"/>
<path d="M135.185 52.0513C134.774 52.0513 134.774 52.6856 135.185 52.6856C135.595 52.6856 135.591 52.0513 135.185 52.0513Z" fill="#C88972"/>
<path d="M137.023 53.3828C136.612 53.3828 136.612 54.0171 137.023 54.0171C137.434 54.0171 137.435 53.3828 137.023 53.3828Z" fill="#C88972"/>
<path d="M139.787 53.0342C139.377 53.0342 139.377 53.6673 139.787 53.6673C140.198 53.6673 140.199 53.0342 139.787 53.0342Z" fill="#C88972"/>
<path d="M134.611 53.8077C134.2 53.8077 134.2 54.442 134.611 54.442C135.021 54.442 135.024 53.8077 134.611 53.8077Z" fill="#C88972"/>
<path d="M137.803 55.1465C137.391 55.1465 137.391 55.7808 137.803 55.7808C138.215 55.7808 138.214 55.1465 137.803 55.1465Z" fill="#C88972"/>
<path d="M162.266 51.7668C161.853 51.7668 161.853 52.3987 162.266 52.3987C162.679 52.3987 162.677 51.7668 162.266 51.7668Z" fill="#C88972"/>
<path d="M159.287 52.0513C158.875 52.0513 158.875 52.6856 159.287 52.6856C159.699 52.6856 159.697 52.0513 159.287 52.0513Z" fill="#C88972"/>
<path d="M161.13 53.3828C160.719 53.3828 160.719 54.0171 161.13 54.0171C161.54 54.0171 161.542 53.3828 161.13 53.3828Z" fill="#C88972"/>
<path d="M163.895 53.0342C163.483 53.0342 163.483 53.6673 163.895 53.6673C164.307 53.6673 164.307 53.0342 163.895 53.0342Z" fill="#C88972"/>
<path d="M158.72 53.8077C158.308 53.8077 158.308 54.442 158.72 54.442C159.132 54.442 159.131 53.8077 158.72 53.8077Z" fill="#C88972"/>
<path d="M161.911 55.1465C161.498 55.1465 161.498 55.7808 161.911 55.7808C162.324 55.7808 162.322 55.1465 161.911 55.1465Z" fill="#C88972"/>
<path opacity="0.1" d="M161.765 27.6392C161.765 27.6392 172.239 33.1869 173.165 38.2129C173.165 38.2129 172.911 35.3864 171.08 32.1229C171.08 32.1229 174.486 33.3019 174.879 36.3342C174.879 36.3342 176.476 29.4876 164.957 24.1578C164.957 24.1578 169.058 27.5472 169.986 30.9051C169.986 30.9051 166.183 27.1829 161.765 27.6392Z" fill="white"/>
<path opacity="0.1" d="M128.877 29.3593C128.877 29.3593 122.951 37.1234 124.164 41.9848C123.583 39.9939 123.336 37.9217 123.433 35.8512C123.433 35.8512 121.268 37.8025 122.126 40.6932C122.126 40.6932 119.369 34.717 124.239 26.235C124.239 26.235 123.234 31.1267 123.806 34.4555C123.81 34.4531 125.311 30.0614 128.877 29.3593Z" fill="white"/>
<path d="M149.254 61.2982C147.001 61.1409 145.26 59.5854 145.231 59.566C145.174 59.5171 145.135 59.4506 145.12 59.3772C145.105 59.3037 145.116 59.2275 145.149 59.1605C145.162 59.1293 145.182 59.1015 145.207 59.079C145.232 59.0566 145.262 59.0402 145.295 59.0311C145.328 59.022 145.362 59.0204 145.395 59.0265C145.428 59.0325 145.46 59.0461 145.487 59.0661C145.525 59.0927 149.251 58.3894 153.016 59.0661C153.157 59.0903 153.281 59.0213 153.352 59.1605C153.386 59.2271 153.397 59.3033 153.383 59.3769C153.368 59.4504 153.329 59.517 153.272 59.566C151.943 60.5514 150.446 61.2982 149.254 61.2982Z" fill="#F3917E"/>
<path d="M149.122 63.2132C148.126 63.2132 147.569 62.8913 147.537 62.8719C147.455 62.8081 147.398 62.7165 147.379 62.6143C147.36 62.5121 147.379 62.4065 147.432 62.3172C147.486 62.2279 147.571 62.1612 147.67 62.1296C147.77 62.098 147.878 62.1037 147.974 62.1456C148.022 62.1722 148.939 62.6649 150.619 62.1093C150.672 62.0916 150.728 62.0844 150.784 62.0883C150.841 62.0922 150.895 62.107 150.946 62.1319C150.996 62.1568 151.041 62.1913 151.078 62.2334C151.115 62.2755 151.143 62.3245 151.161 62.3774C151.178 62.4303 151.186 62.4862 151.182 62.5419C151.178 62.5976 151.163 62.652 151.138 62.702C151.113 62.7519 151.078 62.7965 151.036 62.8331C150.993 62.8698 150.944 62.8977 150.891 62.9155C150.321 63.1092 149.724 63.2097 149.122 63.2132Z" fill="#F5A586"/>
<path d="M142.573 46.4951C142.573 47.3809 142.308 48.2468 141.812 48.9834C141.317 49.7199 140.613 50.294 139.788 50.633C138.964 50.972 138.058 51.0607 137.183 50.8878C136.308 50.715 135.504 50.2884 134.873 49.6621C134.243 49.0357 133.813 48.2376 133.639 47.3688C133.465 46.5 133.554 45.5995 133.896 44.7811C134.237 43.9627 134.815 43.2632 135.557 42.7711C136.299 42.2789 137.171 42.0162 138.063 42.0162C139.259 42.0162 140.406 42.4881 141.252 43.3281C142.097 44.168 142.573 45.3072 142.573 46.4951Z" fill="white"/>
<path d="M141.729 46.4951C141.729 48.1716 140.428 49.531 138.827 49.531C137.225 49.531 135.922 48.1777 135.922 46.4951C135.922 44.8125 137.223 43.4567 138.827 43.4567C140.431 43.4567 141.729 44.8173 141.729 46.4951Z" fill="#00B9C5"/>
<path d="M138.065 50.9703H137.905C137.755 50.9801 137.604 50.978 137.454 50.9642C137.218 50.9469 136.984 50.9108 136.753 50.8565C136.453 50.7838 136.16 50.6795 135.882 50.5454C135.177 50.1984 134.573 49.6784 134.128 49.0347C133.878 48.6671 133.683 48.266 133.548 47.8436C133.27 46.9629 133.27 46.0188 133.548 45.1381C133.683 44.7158 133.878 44.3147 134.127 43.947C134.573 43.3031 135.177 42.7828 135.882 42.4351C136.374 42.1981 136.907 42.0563 137.453 42.0175C137.603 42.004 137.755 42.0016 137.905 42.0102H138.065L137.907 42.0296C137.758 42.0441 137.61 42.0667 137.464 42.0974C137.238 42.1386 137.016 42.1981 136.8 42.2753C136.524 42.3796 136.256 42.5038 135.998 42.6469C135.699 42.8216 135.423 43.0304 135.174 43.2691C134.897 43.5325 134.654 43.8289 134.451 44.1516C134.008 44.8549 133.774 45.6681 133.777 46.4975C133.78 47.0978 133.905 47.6913 134.145 48.2424C134.385 48.7934 134.734 49.2906 135.172 49.7041C135.422 49.9425 135.699 50.1513 135.998 50.3263C136.256 50.4686 136.524 50.5924 136.8 50.6967C137.016 50.7736 137.237 50.8332 137.463 50.8747C137.609 50.9053 137.757 50.928 137.907 50.9425L138.065 50.9703Z" fill="#E89D7F"/>
<path d="M137.026 46.0403C137.585 45.9087 137.931 45.3516 137.799 44.7961C137.666 44.2405 137.105 43.8969 136.546 44.0285C135.986 44.1601 135.64 44.7172 135.773 45.2728C135.905 45.8283 136.466 46.172 137.026 46.0403Z" fill="white"/>
<path d="M137.77 46.4951C137.77 46.7024 137.832 46.9051 137.948 47.0775C138.064 47.2499 138.229 47.3842 138.422 47.4636C138.615 47.5429 138.827 47.5637 139.032 47.5232C139.236 47.4828 139.424 47.3829 139.572 47.2363C139.72 47.0897 139.82 46.9029 139.861 46.6996C139.902 46.4962 139.881 46.2855 139.801 46.0939C139.721 45.9024 139.586 45.7386 139.412 45.6234C139.238 45.5083 139.034 45.4468 138.826 45.4468C138.546 45.4468 138.277 45.5572 138.079 45.7538C137.881 45.9504 137.77 46.217 137.77 46.4951Z" fill="#3D1F0B"/>
<path d="M155.936 46.4951C155.936 47.3809 156.2 48.2468 156.696 48.9834C157.191 49.7199 157.896 50.294 158.72 50.633C159.544 50.972 160.451 51.0607 161.326 50.8878C162.201 50.715 163.004 50.2884 163.635 49.6621C164.266 49.0357 164.695 48.2376 164.869 47.3688C165.043 46.5 164.954 45.5995 164.613 44.7811C164.271 43.9627 163.693 43.2632 162.952 42.7711C162.21 42.2789 161.338 42.0162 160.446 42.0162C159.25 42.0162 158.103 42.4881 157.257 43.3281C156.411 44.168 155.936 45.3072 155.936 46.4951Z" fill="white"/>
<path d="M156.778 46.4951C156.778 48.1716 158.079 49.531 159.682 49.531C161.284 49.531 162.586 48.1777 162.586 46.4951C162.586 44.8125 161.286 43.4567 159.685 43.4567C158.085 43.4567 156.778 44.8173 156.778 46.4951Z" fill="#00B9C5"/>
<path d="M160.442 50.9703L160.601 50.9509C160.75 50.9365 160.898 50.9138 161.044 50.8832C161.27 50.8416 161.492 50.7821 161.707 50.7052C161.983 50.6011 162.251 50.4773 162.51 50.3348C162.808 50.1597 163.085 49.951 163.335 49.7126C163.91 49.1683 164.33 48.4832 164.554 47.7262C164.666 47.3288 164.725 46.9186 164.73 46.506C164.73 46.0859 164.673 45.6678 164.561 45.2628C164.338 44.5058 163.917 43.8207 163.342 43.2764C163.092 43.0387 162.815 42.8303 162.517 42.6554C162.259 42.5123 161.991 42.3881 161.715 42.2838C161.499 42.2067 161.276 42.1472 161.05 42.1059C160.904 42.0753 160.757 42.0527 160.608 42.0381L160.45 42.0187H160.609C160.76 42.0101 160.911 42.0125 161.061 42.026C161.607 42.0648 162.14 42.2065 162.633 42.4436C163.337 42.7909 163.942 43.3108 164.388 43.9543C164.637 44.3219 164.833 44.723 164.968 45.1454C165.094 45.5806 165.162 46.0303 165.17 46.483C165.164 46.9454 165.093 47.4048 164.962 47.8484C164.826 48.2704 164.631 48.671 164.382 49.0384C163.935 49.6818 163.331 50.2017 162.627 50.5491C162.348 50.6832 162.056 50.7875 161.755 50.8602C161.525 50.9145 161.29 50.9505 161.054 50.9679C160.904 50.9817 160.753 50.9837 160.603 50.9739L160.442 50.9703Z" fill="#E89D7F"/>
<path d="M162.829 45.1321C162.829 45.3365 162.768 45.5364 162.653 45.7064C162.539 45.8764 162.376 46.0089 162.186 46.0872C161.996 46.1654 161.787 46.1859 161.585 46.146C161.383 46.1061 161.197 46.0076 161.052 45.8631C160.906 45.7185 160.807 45.5343 160.767 45.3338C160.727 45.1332 160.747 44.9254 160.826 44.7365C160.905 44.5476 161.038 44.3861 161.21 44.2726C161.381 44.159 161.582 44.0983 161.788 44.0983C162.064 44.0983 162.329 44.2072 162.524 44.4011C162.719 44.595 162.829 44.8579 162.829 45.1321Z" fill="white"/>
<path d="M160.737 46.4951C160.737 46.7024 160.675 46.9052 160.559 47.0776C160.443 47.25 160.278 47.3844 160.085 47.4637C159.892 47.543 159.68 47.5637 159.475 47.5231C159.27 47.4826 159.082 47.3826 158.935 47.2359C158.787 47.0892 158.687 46.9023 158.646 46.6988C158.606 46.4954 158.627 46.2846 158.707 46.0931C158.787 45.9015 158.922 45.7379 159.096 45.6229C159.27 45.5078 159.474 45.4465 159.683 45.4468C159.821 45.4468 159.959 45.4739 160.087 45.5266C160.215 45.5793 160.331 45.6565 160.429 45.7539C160.527 45.8512 160.604 45.9668 160.657 46.094C160.71 46.2212 160.737 46.3575 160.737 46.4951Z" fill="#3D1F0B"/>
<path opacity="0.1" d="M133.559 19.2928C133.559 19.2928 134.2 23.9496 135.426 25.8949C135.426 25.8949 133.138 27.2664 130.52 31.186C130.52 31.186 132.082 27.73 133.445 26.143C133.445 26.143 129.781 25.3272 127.259 29.0034C127.253 29.0034 128.115 23.1955 133.559 19.2928Z" fill="white"/>
<g style="mix-blend-mode:multiply" opacity="0.5">
<path d="M135.922 26.9517C135.922 26.9517 159.615 38.4175 173.981 24.5198C173.981 24.5198 173.403 23.388 172.957 22.5975C172.957 22.5975 159.223 20.0942 135.922 26.9517Z" fill="#D19A81"/>
</g>
<path d="M135.922 26.9517C135.922 26.9517 161.91 36.661 178.618 18.5508C176.777 18.6427 174.932 18.6427 173.091 18.5508C173.091 18.5508 176.487 16.5572 176.487 12.6666C176.487 12.6666 172.134 15.757 168.359 12.6666C168.359 12.6666 147.326 0.60405 134.17 12.6666C134.17 12.6666 131.666 18.4104 135.922 26.9517Z" fill="#743B21"/>
<path opacity="0.1" d="M148.722 13.1762C148.722 13.1762 139.756 12.2623 137.03 15.0392C137.03 15.0392 138.395 13.3675 140.942 12.0807C140.942 12.0807 138.293 11.3932 136.751 13.1363C136.751 13.1363 138.665 8.15268 148.196 9.63796C148.196 9.63796 144.173 10.0471 142.148 11.7745C142.148 11.7745 146.133 11.0288 148.722 13.1762Z" fill="white"/>
<path opacity="0.1" d="M154.028 19.9211C154.028 19.9211 165.821 21.2805 169.464 17.6732C169.464 17.6732 167.635 19.8521 164.256 21.502C164.256 21.502 167.734 22.4559 169.795 20.1874C169.795 20.1874 167.185 26.718 154.658 24.5912C154.658 24.5912 159.969 24.1239 162.662 21.8869C162.662 21.8845 157.401 22.7936 154.028 19.9211Z" fill="white"/>
<path opacity="0.1" d="M135.487 18.5508C135.487 18.5508 135.627 22.1399 137.331 25.0149C137.331 25.0149 143.116 26.7773 151.181 25.8949C151.181 25.8949 146.84 24.5997 144.097 23.9508C144.097 23.9508 150.035 22.8384 151.506 21.5129C151.506 21.5129 146.684 21.0965 143.497 20.0603C143.497 20.0603 145.958 19.1234 150.627 17.672C150.627 17.6732 141.73 15.0392 135.487 18.5508Z" fill="white"/>
<path d="M153.3 70.3007L158.624 71.3453C159.292 71.5164 159.906 71.8559 160.404 72.3311C160.902 72.8063 161.268 73.4011 161.467 74.058C161.976 84.3097 161.916 90.4735 162.741 104.554C162.741 104.554 157.118 106.824 149.004 106.612C140.893 106.825 135.27 104.554 135.27 104.554C135.903 93.5167 136.288 87.3299 136.855 74.0145C137.579 71.7145 139.381 71.3453 139.381 71.3453L144.475 70.3454C144.475 70.3454 144.547 73.5956 148.787 73.5097C148.792 73.5097 152.824 74.0205 153.3 70.3007Z" fill="#007DC3"/>
<path d="M221.3 107.209C221.3 107.209 212.539 119.355 217.585 138.61L220.778 137.512C220.778 137.512 219.424 123.893 230.627 109.622L221.3 107.209Z" fill="#D0835F"/>
<path d="M216.555 133.583C216.809 135.276 217.154 136.954 217.587 138.61L220.778 137.512C220.778 137.512 220.619 135.879 220.871 133.154C219.779 132.463 217.251 133.071 216.555 133.583Z" fill="white"/>
<path d="M217.585 138.61L214.181 143.039C214.181 143.039 212.971 144.069 213.411 145.978C213.411 145.978 220.7 143.91 223.453 141.003L220.771 137.507L217.585 138.61Z" fill="#F8B78F"/>
<path d="M217.585 138.61L214.181 143.039C214.181 143.039 212.971 144.069 213.411 145.978C213.411 145.978 220.7 143.91 223.453 141.003L220.771 137.507L217.585 138.61Z" fill="white"/>
<path d="M220.778 137.512L223.46 141.008C220.708 143.913 213.418 145.983 213.418 145.983C212.978 144.074 214.189 143.044 214.189 143.044L217.585 138.61C217.585 138.61 219.613 138.978 220.778 137.512Z" fill="#0063A1"/>
<path d="M222.716 140.038L223.455 141.007C220.703 143.912 213.413 145.982 213.413 145.982C213.358 145.744 213.326 145.5 213.318 145.256C213.318 145.256 221.591 142.487 222.716 140.038Z" fill="white"/>
<path d="M216.874 139.512C217.407 139.451 218.093 139.658 218.459 140.065C218.666 140.3 218.306 140.626 218.099 140.392C217.855 140.117 217.338 139.945 216.975 139.986C216.666 140.02 216.564 139.547 216.878 139.512H216.874Z" fill="white"/>
<path d="M216.327 140.249C216.922 140.319 217.452 140.465 217.942 140.817C218.197 141 217.934 141.408 217.679 141.225C217.271 140.941 216.795 140.771 216.299 140.732C215.988 140.695 216.013 140.21 216.327 140.248V140.249Z" fill="white"/>
<path d="M215.771 141.047C216.301 141.147 216.894 141.251 217.252 141.693C217.448 141.935 217.09 142.263 216.894 142.02C216.595 141.657 216.061 141.59 215.621 141.508C215.313 141.45 215.467 140.99 215.771 141.047Z" fill="white"/>
<path d="M215.147 141.846C215.665 141.914 216.159 142.109 216.583 142.413C216.837 142.597 216.575 143.004 216.319 142.821C215.967 142.56 215.554 142.39 215.119 142.329C214.81 142.285 214.835 141.802 215.147 141.845V141.846Z" fill="white"/>
<path d="M233.853 107.512C233.853 107.512 231.049 122.195 243.791 137.55L246.219 135.216C246.219 135.216 239.221 123.432 243.338 105.801L233.853 107.512Z" fill="#D0835F"/>
<path d="M240.724 133.421C241.672 134.85 242.696 136.228 243.791 137.55L246.219 135.216C246.219 135.216 245.382 133.801 244.457 131.221C243.175 131.058 241.138 132.67 240.724 133.421Z" fill="white"/>
<path d="M243.792 137.55L242.583 142.997C242.583 142.997 241.921 144.436 243.129 145.984C243.129 145.984 248.858 141.061 250.129 137.269L246.22 135.211L243.792 137.55Z" fill="#F8B78F"/>
<path d="M243.792 137.55L242.583 142.997C242.583 142.997 241.921 144.436 243.129 145.984C243.129 145.984 248.858 141.061 250.129 137.269L246.22 135.211L243.792 137.55Z" fill="white"/>
<path d="M246.219 135.212L250.128 137.27C248.863 141.056 243.127 145.986 243.127 145.986C241.919 144.437 242.581 142.998 242.581 142.998C243.386 139.374 243.789 137.558 243.791 137.551C243.791 137.551 245.785 137.036 246.219 135.212Z" fill="#0063A1"/>
<path d="M249.05 136.702L250.13 137.27C248.865 141.056 243.13 145.986 243.13 145.986C242.978 145.793 242.846 145.586 242.736 145.367C242.736 145.367 249.066 139.394 249.05 136.702Z" fill="white"/>
<path d="M243.526 138.667C243.983 138.389 244.695 138.289 245.195 138.508C245.482 138.629 245.293 139.08 245.007 138.954C244.671 138.806 244.128 138.865 243.816 139.056C243.549 139.217 243.257 138.829 243.526 138.667Z" fill="white"/>
<path d="M243.342 139.57C243.911 139.385 244.454 139.295 245.049 139.41C245.358 139.47 245.292 139.949 244.983 139.894C244.492 139.808 243.987 139.852 243.52 140.024C243.223 140.12 243.041 139.67 243.341 139.575L243.342 139.57Z" fill="white"/>
<path d="M243.182 140.519C243.706 140.39 244.288 140.236 244.8 140.486C245.081 140.624 244.894 141.072 244.612 140.933C244.185 140.725 243.675 140.892 243.241 141C242.937 141.076 242.882 140.594 243.182 140.515V140.519Z" fill="white"/>
<path d="M242.947 141.507C243.446 141.352 243.977 141.323 244.49 141.422C244.799 141.481 244.734 141.962 244.426 141.906C243.995 141.816 243.548 141.834 243.126 141.959C242.828 142.049 242.646 141.596 242.947 141.51V141.507Z" fill="white"/>
<path d="M231.462 111.638L233.592 121.011C239.018 123.57 245.599 118.682 245.599 118.682L243.213 97.5247H217.28L214.903 118.682C214.903 118.682 222.966 122.524 228.394 119.966L229.784 111.638H231.462Z" fill="#008EC1"/>
<path d="M204.147 38.2867C204.147 38.9874 203.937 39.6721 203.545 40.2544C203.152 40.8367 202.595 41.2905 201.943 41.5583C201.291 41.8262 200.574 41.896 199.882 41.7592C199.19 41.6223 198.555 41.2847 198.056 40.7893C197.557 40.2938 197.218 39.6626 197.08 38.9754C196.942 38.2883 197.013 37.576 197.283 36.9287C197.553 36.2814 198.01 35.7281 198.596 35.3388C199.183 34.9494 199.873 34.7415 200.578 34.7412C201.047 34.7412 201.511 34.8329 201.944 35.0111C202.377 35.1893 202.771 35.4505 203.102 35.7797C203.434 36.109 203.697 36.4999 203.876 36.93C204.055 37.3602 204.147 37.8212 204.147 38.2867Z" fill="#4A2724"/>
<path d="M205.369 43.7981C205.369 44.4989 205.159 45.1839 204.767 45.7666C204.375 46.3492 203.818 46.8034 203.166 47.0715C202.514 47.3397 201.797 47.4099 201.105 47.2732C200.413 47.1364 199.777 46.799 199.278 46.3035C198.779 45.808 198.439 45.1766 198.301 44.4894C198.164 43.8021 198.234 43.0897 198.504 42.4422C198.774 41.7948 199.232 41.2415 199.818 40.8521C200.405 40.4628 201.095 40.255 201.801 40.255C202.747 40.255 203.654 40.6283 204.324 41.2928C204.993 41.9572 205.369 42.8584 205.369 43.7981Z" fill="#4A2724"/>
<path d="M204.147 32.1471C204.147 32.8478 203.938 33.5328 203.546 34.1154C203.154 34.6981 202.597 35.1522 201.945 35.4204C201.293 35.6886 200.576 35.7589 199.884 35.6222C199.192 35.4856 198.556 35.1483 198.057 34.6529C197.558 34.1575 197.218 33.5263 197.08 32.8391C196.942 32.1519 197.013 31.4395 197.283 30.7921C197.553 30.1446 198.01 29.5912 198.596 29.2017C199.183 28.8122 199.872 28.6042 200.578 28.604C201.524 28.604 202.432 28.9773 203.101 29.6417C203.771 30.3061 204.147 31.2073 204.147 32.1471Z" fill="#4A2724"/>
<path d="M204.147 25.4397C204.147 26.1404 203.938 26.8254 203.546 27.408C203.154 27.9907 202.597 28.4448 201.945 28.713C201.293 28.9812 200.576 29.0515 199.884 28.9148C199.192 28.7782 198.556 28.4409 198.057 27.9455C197.558 27.4501 197.218 26.8189 197.08 26.1317C196.942 25.4445 197.013 24.7321 197.283 24.0847C197.553 23.4372 198.01 22.8838 198.596 22.4943C199.183 22.1048 199.872 21.8968 200.578 21.8966C201.047 21.8964 201.511 21.988 201.944 22.166C202.377 22.3439 202.77 22.6049 203.102 22.9339C203.433 23.263 203.696 23.6536 203.875 24.0836C204.055 24.5135 204.147 24.9743 204.147 25.4397Z" fill="#4A2724"/>
<path d="M206.35 19.0411C206.349 19.7417 206.139 20.4263 205.747 21.0085C205.354 21.5907 204.797 22.0443 204.145 22.3119C203.493 22.5795 202.775 22.6492 202.084 22.512C201.392 22.3749 200.756 22.0372 200.258 21.5415C199.759 21.0459 199.42 20.4145 199.282 19.7273C199.145 19.0401 199.216 18.3279 199.486 17.6807C199.756 17.0335 200.213 16.4804 200.8 16.0912C201.387 15.702 202.076 15.4943 202.782 15.4943C203.251 15.4945 203.715 15.5864 204.148 15.7647C204.581 15.943 204.974 16.2044 205.306 16.5337C205.637 16.8631 205.9 17.254 206.079 17.6843C206.258 18.1145 206.35 18.5755 206.35 19.0411Z" fill="#4A2724"/>
<path d="M209.443 13.3009C209.443 14.0017 209.234 14.6867 208.842 15.2694C208.45 15.852 207.893 16.3062 207.241 16.5743C206.589 16.8425 205.872 16.9127 205.18 16.776C204.487 16.6393 203.852 16.3018 203.353 15.8063C202.854 15.3108 202.514 14.6795 202.376 13.9922C202.239 13.3049 202.309 12.5925 202.579 11.945C202.849 11.2976 203.307 10.7443 203.893 10.3549C204.48 9.96561 205.17 9.75781 205.876 9.75781C206.822 9.75781 207.729 10.1311 208.398 10.7956C209.067 11.46 209.443 12.3612 209.443 13.3009Z" fill="#4A2724"/>
<path d="M213.941 9.1332C213.941 9.83397 213.732 10.519 213.34 11.1017C212.948 11.6843 212.391 12.1384 211.739 12.4066C211.087 12.6748 210.369 12.745 209.677 12.6082C208.985 12.4715 208.35 12.1341 207.851 11.6386C207.352 11.1431 207.012 10.5117 206.874 9.82443C206.736 9.13713 206.807 8.42473 207.077 7.77731C207.347 7.12989 207.805 6.57653 208.391 6.18721C208.978 5.79789 209.668 5.59009 210.373 5.59009C211.32 5.59041 212.227 5.9638 212.896 6.6282C213.565 7.29259 213.941 8.19361 213.941 9.1332Z" fill="#4A2724"/>
<path d="M218.56 5.80191C218.56 6.50296 218.351 7.18834 217.959 7.77136C217.567 8.35438 217.01 8.80885 216.357 9.0773C215.705 9.34575 214.988 9.41611 214.295 9.27949C213.603 9.14287 212.967 8.8054 212.468 8.30976C211.968 7.81413 211.628 7.18259 211.49 6.49503C211.353 5.80746 211.423 5.09475 211.693 4.44704C211.963 3.79933 212.421 3.24571 213.008 2.8562C213.595 2.46669 214.285 2.25879 214.991 2.25879C215.937 2.25879 216.845 2.63204 217.514 3.29647C218.183 3.9609 218.559 4.8621 218.56 5.80191Z" fill="#4A2724"/>
<path d="M225.326 4.25729C225.326 4.95839 225.117 5.64382 224.725 6.22687C224.333 6.80991 223.776 7.26439 223.123 7.5328C222.471 7.80121 221.754 7.8715 221.061 7.73478C220.369 7.59806 219.733 7.26047 219.233 6.76472C218.734 6.26896 218.394 5.63731 218.257 4.94967C218.119 4.26202 218.19 3.54928 218.46 2.90159C218.73 2.25389 219.188 1.70036 219.775 1.31099C220.362 0.921631 221.052 0.713933 221.758 0.714173C222.705 0.714173 223.612 1.08746 224.281 1.75193C224.95 2.41639 225.326 3.3176 225.326 4.25729Z" fill="#4A2724"/>
<path d="M231.058 3.75251C231.016 4.45184 230.766 5.12321 230.341 5.68177C229.915 6.24033 229.332 6.661 228.665 6.89062C227.999 7.12025 227.279 7.14851 226.596 6.97184C225.914 6.79517 225.299 6.4215 224.83 5.89806C224.361 5.37462 224.059 4.72489 223.962 4.03101C223.865 3.33712 223.977 2.63022 224.285 1.99964C224.592 1.36906 225.081 0.843114 225.689 0.488267C226.297 0.133421 226.998 -0.034396 227.702 0.00602663C228.17 0.0328976 228.628 0.151158 229.05 0.354043C229.472 0.556929 229.85 0.840459 230.162 1.18842C230.473 1.53638 230.713 1.94194 230.867 2.38191C231.02 2.82188 231.085 3.28762 231.058 3.75251Z" fill="#4A2724"/>
<path d="M236.893 3.54312C236.893 4.24388 236.683 4.9289 236.291 5.51157C235.899 6.09423 235.342 6.54836 234.69 6.81653C234.038 7.0847 233.321 7.15486 232.629 7.01815C231.937 6.88144 231.301 6.54399 230.802 6.04848C230.303 5.55296 229.963 4.92164 229.826 4.23434C229.688 3.54705 229.759 2.83464 230.029 2.18722C230.299 1.5398 230.756 0.986446 231.343 0.597123C231.929 0.2078 232.619 2.06941e-07 233.325 2.06941e-07C233.793 -0.000158854 234.257 0.091378 234.69 0.26938C235.123 0.447382 235.517 0.70836 235.848 1.0374C236.179 1.36644 236.442 1.75709 236.621 2.18704C236.801 2.61698 236.893 3.07778 236.893 3.54312Z" fill="#4A2724"/>
<path d="M243.333 4.4534C243.333 5.15431 243.124 5.83948 242.732 6.42222C242.34 7.00496 241.782 7.45909 241.13 7.72716C240.478 7.99522 239.76 8.06517 239.068 7.92816C238.376 7.79116 237.74 7.45335 237.241 6.95747C236.743 6.46159 236.403 5.82993 236.266 5.1424C236.129 4.45486 236.2 3.74234 236.47 3.09499C236.741 2.44763 237.199 1.89452 237.786 1.50564C238.373 1.11675 239.063 0.909562 239.769 0.91028C240.715 0.911563 241.621 1.28538 242.289 1.94967C242.958 2.61396 243.333 3.51443 243.333 4.4534Z" fill="#4A2724"/>
<path d="M248.46 5.80191C248.46 6.50251 248.251 7.1874 247.859 7.76998C247.467 8.35256 246.91 8.80669 246.259 9.07497C245.607 9.34325 244.89 9.41362 244.198 9.27721C243.506 9.14079 242.87 8.8037 242.371 8.30855C241.872 7.8134 241.532 7.18242 241.394 6.49536C241.256 5.8083 241.326 5.09601 241.595 4.44853C241.865 3.80105 242.321 3.24744 242.908 2.85768C243.494 2.46792 244.183 2.25951 244.889 2.25879C245.358 2.25831 245.822 2.34961 246.255 2.52745C246.689 2.7053 247.082 2.9662 247.414 3.29526C247.746 3.62432 248.009 4.01507 248.188 4.44518C248.368 4.87528 248.46 5.33631 248.46 5.80191Z" fill="#4A2724"/>
<path d="M253.488 9.00607C253.488 9.70683 253.279 10.3919 252.887 10.9745C252.495 11.5572 251.938 12.0113 251.286 12.2795C250.634 12.5477 249.917 12.6178 249.225 12.4811C248.532 12.3444 247.897 12.0069 247.398 11.5114C246.899 11.0159 246.559 10.3846 246.421 9.6973C246.284 9.01 246.354 8.2976 246.624 7.65018C246.894 7.00276 247.352 6.4494 247.938 6.06007C248.525 5.67075 249.215 5.46295 249.921 5.46295C250.389 5.46279 250.853 5.55433 251.286 5.73233C251.719 5.91033 252.112 6.17131 252.444 6.50035C252.775 6.82939 253.038 7.22005 253.217 7.64999C253.396 8.07993 253.489 8.54074 253.488 9.00607Z" fill="#4A2724"/>
<path d="M257.99 12.5492C257.99 13.2503 257.781 13.9357 257.389 14.5187C256.997 15.1017 256.44 15.5562 255.788 15.8246C255.135 16.0931 254.418 16.1634 253.725 16.0268C253.033 15.8902 252.397 15.5527 251.898 15.0571C251.398 14.5614 251.058 13.9299 250.921 13.2423C250.783 12.5548 250.853 11.8421 251.123 11.1944C251.393 10.5466 251.851 9.99302 252.438 9.60351C253.025 9.21401 253.715 9.0061 254.421 9.0061C254.89 9.00594 255.354 9.09747 255.787 9.27546C256.22 9.45345 256.613 9.71441 256.944 10.0434C257.276 10.3725 257.539 10.7631 257.718 11.193C257.898 11.623 257.99 12.0838 257.99 12.5492Z" fill="#4A2724"/>
<path d="M260.588 16.953C260.588 17.6537 260.378 18.3388 259.986 18.9214C259.594 19.5041 259.037 19.9582 258.385 20.2264C257.733 20.4946 257.016 20.5647 256.324 20.428C255.632 20.2913 254.996 19.9538 254.497 19.4583C253.998 18.9628 253.658 18.3315 253.52 17.6442C253.383 16.9569 253.453 16.2445 253.723 15.5971C253.993 14.9497 254.451 14.3963 255.037 14.007C255.624 13.6177 256.314 13.4099 257.02 13.4099C257.966 13.4102 258.873 13.7836 259.542 14.448C260.211 15.1124 260.587 16.0134 260.588 16.953Z" fill="#4A2724"/>
<path d="M262.239 22.8323C262.229 23.533 262.009 24.2149 261.609 24.7918C261.208 25.3686 260.644 25.8145 259.988 26.073C259.332 26.3316 258.614 26.3912 257.924 26.2443C257.234 26.0974 256.603 25.7506 256.112 25.2477C255.62 24.7449 255.29 24.1086 255.162 23.4193C255.035 22.73 255.116 22.0188 255.396 21.3754C255.676 20.732 256.141 20.1855 256.734 19.8049C257.326 19.4243 258.019 19.2267 258.725 19.2372C259.671 19.2512 260.573 19.6378 261.232 20.312C261.891 20.9862 262.253 21.8928 262.239 22.8323Z" fill="#4A2724"/>
<path d="M263.133 28.9829C263.133 29.6836 262.923 30.3687 262.531 30.9513C262.139 31.534 261.582 31.9881 260.93 32.2563C260.278 32.5245 259.561 32.5946 258.869 32.4579C258.177 32.3212 257.541 31.9837 257.042 31.4882C256.543 30.9927 256.203 30.3614 256.066 29.6741C255.928 28.9868 255.998 28.2744 256.269 27.627C256.539 26.9796 256.996 26.4262 257.583 26.0369C258.169 25.6476 258.859 25.4398 259.565 25.4398C260.511 25.4398 261.419 25.813 262.088 26.4775C262.757 27.142 263.133 28.0432 263.133 28.9829Z" fill="#4A2724"/>
<path d="M262.929 34.9651C262.929 35.6659 262.72 36.3509 262.328 36.9336C261.936 37.5162 261.379 37.9704 260.727 38.2385C260.075 38.5067 259.357 38.5769 258.665 38.4402C257.973 38.3034 257.337 37.966 256.838 37.4705C256.339 36.975 256 36.3436 255.862 35.6563C255.724 34.969 255.795 34.2566 256.065 33.6092C256.335 32.9618 256.792 32.4084 257.379 32.0191C257.966 31.6298 258.656 31.422 259.361 31.422C260.307 31.4223 261.215 31.7957 261.884 32.4601C262.553 33.1245 262.929 34.0255 262.929 34.9651Z" fill="#4A2724"/>
<path d="M262.24 40.1509C262.24 40.8517 262.031 41.5367 261.639 42.1194C261.247 42.702 260.69 43.1561 260.038 43.4243C259.386 43.6925 258.669 43.7627 257.976 43.6259C257.284 43.4892 256.649 43.1518 256.15 42.6563C255.651 42.1608 255.311 41.5294 255.173 40.8421C255.036 40.1548 255.106 39.4424 255.376 38.795C255.646 38.1476 256.104 37.5942 256.69 37.2049C257.277 36.8156 257.967 36.6078 258.672 36.6078C259.619 36.6078 260.526 36.9811 261.195 37.6455C261.864 38.31 262.24 39.2112 262.24 40.1509Z" fill="#4A2724"/>
<path d="M260.795 44.7701C260.795 45.4709 260.585 46.1559 260.193 46.7386C259.801 47.3212 259.244 47.7754 258.592 48.0435C257.94 48.3117 257.223 48.3819 256.531 48.2451C255.839 48.1084 255.203 47.771 254.704 47.2755C254.205 46.78 253.865 46.1486 253.728 45.4613C253.59 44.774 253.661 44.0616 253.931 43.4142C254.201 42.7668 254.658 42.2134 255.245 41.8241C255.831 41.4348 256.521 41.227 257.227 41.227C258.173 41.227 259.081 41.6003 259.75 42.2647C260.419 42.9292 260.795 43.8304 260.795 44.7701Z" fill="#4A2724"/>
<path d="M262.725 51.1119C262.725 51.1119 257.346 62.401 243.698 68.6035C243.698 68.6035 243.376 74.512 246.912 75.4925C246.912 75.4925 262.758 63.1454 265.574 52.1384C265.574 52.1384 265.377 49.146 262.725 51.1119Z" fill="#D0835F"/>
<path d="M268.643 46.9175C268.703 48.327 268.416 49.7297 267.807 51.0042C267.807 51.0042 266.921 52.8659 265.569 53.1467C265.569 53.1467 263.301 53.942 262.285 51.8721C262.028 51.3467 262.175 50.6894 262.209 50.1362C262.209 50.0963 262.209 50.0588 262.216 50.0212C262.248 49.3797 262.239 48.7284 262.054 48.1062C261.747 47.0616 262.566 46.8473 262.566 46.8473C262.951 46.7263 263.325 47.0071 263.419 47.3799C263.531 47.8411 263.625 48.3108 263.73 48.7744C264.026 49.4305 264.32 48.9802 264.32 48.9802C264.686 47.5058 264.782 45.6175 264.782 45.6175C264.94 44.9626 265.488 45.0122 265.488 45.0122C265.488 45.0122 266.063 44.867 266.082 46.5217C266.082 46.5217 266.059 48.0239 265.608 49.3506C266.034 48.559 266.242 46.3498 266.242 46.3498C266.12 45.316 266.936 45.4468 266.936 45.4468C267.841 45.7567 267.376 47.6172 267.376 47.6172C267.003 49.2816 266.911 49.9837 266.911 49.9837L267.511 47.2855C267.511 47.2855 267.565 46.3099 268.072 46.3389C268.072 46.3438 268.518 46.276 268.643 46.9175Z" fill="#D0835F"/>
<path d="M237.468 76.6243C237.468 76.6243 239.591 80.5124 244.189 78.6143L252.788 72.3198C252.788 72.3198 252.692 67.1921 248.559 64.6937C248.559 64.6937 242.975 67.6993 240.547 68.8989C237.689 70.3019 235.919 73.1405 237.468 76.6243Z" fill="#FCB440"/>
<path d="M194.939 52.9313C194.939 52.9313 201.514 63.5836 215.757 68.2791C215.757 68.2791 216.722 74.1186 213.312 75.4731C213.312 75.4731 196.212 64.8982 192.219 54.2592C192.219 54.2592 192.089 51.2644 194.939 52.9313Z" fill="#D0835F"/>
<path d="M188.6 49.3979C188.693 50.8054 189.131 52.169 189.875 53.3707C189.875 53.3707 190.958 55.1271 192.333 55.2603C192.333 55.2603 194.675 55.8074 195.46 53.6406C195.658 53.0911 195.439 52.4531 195.346 51.906C195.346 51.8673 195.333 51.831 195.327 51.7934C195.224 51.1591 195.162 50.5115 195.279 49.8724C195.472 48.8011 194.633 48.6752 194.633 48.6752C194.238 48.6014 193.896 48.9173 193.842 49.2962C193.781 49.7671 193.739 50.244 193.685 50.7161C193.463 51.4 193.122 50.9848 193.122 50.9848C192.596 49.5576 192.297 47.6935 192.297 47.6935C192.067 47.0604 191.53 47.173 191.53 47.173C191.53 47.173 190.941 47.0894 191.103 48.7369C191.103 48.7369 191.29 50.2283 191.882 51.4981C191.371 50.7572 190.924 48.5844 190.924 48.5844C190.935 47.5422 190.138 47.7601 190.138 47.7601C189.271 48.1656 189.937 49.9656 189.937 49.9656C190.488 51.5804 190.656 52.2655 190.656 52.2655L189.766 49.6472C189.766 49.6472 189.606 48.6788 189.104 48.7672C189.104 48.766 188.654 48.7466 188.6 49.3979Z" fill="#D0835F"/>
<path d="M222.826 75.582C222.826 75.582 221.139 79.6759 216.366 78.2826L207.132 72.9419C207.132 72.9419 206.669 67.8349 210.506 64.9067C210.506 64.9067 216.385 67.2962 218.929 68.2271C221.917 69.3238 223.985 71.9554 222.826 75.582Z" fill="#FCB440"/>
<path d="M234.109 63.6381H226.126V67.4342H234.109V63.6381Z" fill="#D0835F"/>
<path d="M234.109 64.7614V63.6357H226.126V65.9477C229.263 66.2007 231.941 65.6645 234.109 64.7614Z" fill="#C27457"/>
<path d="M242.817 70.5972C242.06 68.1956 240.175 67.8058 240.175 67.8058L233.124 66.4222H227.109L220.058 67.8058C220.058 67.8058 218.173 68.1956 217.416 70.5972C216.952 84.1221 216.549 91.6574 215.756 102.529C215.756 102.529 221.635 104.904 230.118 104.68C238.603 104.904 244.482 102.529 244.482 102.529C244.157 96.8492 243.492 84.4441 242.817 70.5972Z" fill="#D0835F"/>
<path d="M234.607 66.714L240.174 67.8034C240.174 67.8034 242.058 68.1932 242.815 70.596C243.347 81.3162 243.616 87.8056 244.479 102.53C244.479 102.53 238.6 104.904 230.115 104.681C221.633 104.906 215.756 102.529 215.756 102.529C216.417 90.9868 216.82 84.5179 217.419 70.5948C218.176 68.192 220.06 67.8022 220.06 67.8022L225.386 66.7612C225.386 66.7612 225.46 70.1591 229.896 70.0695C229.896 70.0695 234.109 70.6033 234.607 66.714Z" fill="#FCB440"/>
<path d="M256.214 40.8372C256.214 53.7362 244.311 64.1925 229.625 64.1925C214.94 64.1925 203.038 53.7362 203.038 40.8372C203.038 27.9382 214.941 17.4832 229.625 17.4832C244.31 17.4832 256.214 27.9406 256.214 40.8372Z" fill="#D0835F"/>
<path d="M199.696 45.5146C199.828 47.6281 201.317 49.2574 203.02 49.1521C204.722 49.0468 206.005 47.2529 205.866 45.1393C205.727 43.0258 204.248 41.3989 202.543 41.5079C200.838 41.6168 199.566 43.4059 199.696 45.5146Z" fill="#D0835F"/>
<path d="M201.213 42.6905C201.389 42.5694 201.749 42.5101 201.966 42.5065C203.094 42.4835 203.907 44.3924 202.771 44.6709C202.326 45.0933 202.74 45.6308 202.74 45.6308C203.106 46.098 203.594 46.7723 203.444 47.4029C203.355 47.7794 202.956 47.9658 202.598 48.0421C202.311 48.1014 202.269 47.8617 202.497 47.7588C202.671 47.673 202.824 47.5488 202.943 47.3957C202.954 47.3739 202.968 47.3533 202.979 47.3339C202.991 47.3203 203 47.3052 203.007 47.2892C203.047 47.2018 203.056 47.104 203.034 47.0107C202.773 47.1923 202.349 47.2153 202.165 46.9551C201.966 46.6706 202.146 46.2469 202.092 45.9286C202.044 45.7086 201.966 45.496 201.86 45.2967C201.392 44.3452 202.327 44.2363 202.327 44.2363C202.441 44.2444 202.555 44.2585 202.667 44.2787C203.155 44.0366 202.667 43.2546 202.381 43.119C202.223 43.0349 202.042 43.0027 201.865 43.027C201.688 43.0514 201.522 43.1311 201.394 43.2546C201.149 43.5504 201.019 43.9237 201.028 44.3065C201.032 44.7491 201.115 45.1875 201.272 45.6017C201.363 45.8341 201.479 46.1113 201.57 46.3425C201.675 46.6076 201.39 46.7057 201.284 46.4418C201.064 45.8838 200.645 45.0594 200.587 44.2968C200.539 43.6649 200.673 43.0682 201.213 42.6905Z" fill="#C27457"/>
<path d="M259.555 45.5146C259.422 47.6281 257.935 49.2574 256.232 49.1521C254.529 49.0468 253.253 47.2504 253.386 45.1369C253.519 43.0234 255.003 41.3965 256.709 41.5054C258.414 41.6144 259.685 43.4059 259.555 45.5146Z" fill="#D0835F"/>
<path d="M258.036 42.6905C257.862 42.5694 257.502 42.5101 257.284 42.5065C256.158 42.4835 255.344 44.3924 256.481 44.6709C256.926 45.0933 256.51 45.6308 256.51 45.6308C256.144 46.098 255.657 46.7723 255.808 47.4029C255.897 47.7794 256.296 47.9658 256.654 48.0421C256.939 48.1014 256.983 47.8617 256.754 47.7588C256.58 47.6727 256.427 47.5485 256.308 47.3957C256.297 47.3739 256.283 47.3533 256.271 47.3339C256.261 47.32 256.252 47.305 256.244 47.2892C256.205 47.2019 256.195 47.1041 256.216 47.0107C256.477 47.1923 256.901 47.2153 257.085 46.9551C257.284 46.6706 257.104 46.2469 257.16 45.9286C257.207 45.7061 257.285 45.4914 257.393 45.2906C257.861 44.3392 256.926 44.2302 256.926 44.2302C256.811 44.2383 256.697 44.2525 256.584 44.2726C256.097 44.0305 256.584 43.2485 256.87 43.113C257.028 43.0294 257.209 42.9975 257.387 43.0218C257.564 43.0462 257.73 43.1255 257.86 43.2485C258.103 43.5449 258.233 43.9178 258.225 44.3004C258.221 44.7431 258.139 45.1816 257.981 45.5957C257.891 45.8281 257.777 46.1053 257.683 46.3365C257.578 46.6016 257.864 46.6996 257.97 46.4358C258.189 45.8777 258.609 45.0534 258.666 44.2908C258.713 43.6649 258.579 43.0682 258.036 42.6905Z" fill="#C27457"/>
<path d="M231.535 49.2102C231.417 49.2096 231.305 49.1626 231.221 49.0796C231.138 48.9966 231.092 48.8843 231.092 48.7672C231.092 48.3819 230.938 48.0125 230.663 47.74C230.389 47.4676 230.017 47.3146 229.629 47.3146C229.241 47.3146 228.869 47.4676 228.595 47.74C228.32 48.0125 228.166 48.3819 228.166 48.7672C228.169 48.8271 228.16 48.887 228.139 48.9432C228.118 48.9995 228.086 49.0509 228.045 49.0944C228.003 49.1379 227.953 49.1726 227.898 49.1963C227.842 49.2199 227.782 49.2321 227.722 49.2321C227.662 49.2321 227.602 49.2199 227.546 49.1963C227.491 49.1726 227.441 49.1379 227.399 49.0944C227.358 49.0509 227.325 48.9995 227.305 48.9432C227.284 48.887 227.274 48.8271 227.278 48.7672C227.27 48.4557 227.326 48.1459 227.441 47.856C227.556 47.5661 227.729 47.302 227.948 47.0792C228.167 46.8564 228.429 46.6793 228.718 46.5585C229.008 46.4376 229.318 46.3753 229.632 46.3753C229.946 46.3753 230.256 46.4376 230.546 46.5585C230.835 46.6793 231.097 46.8564 231.316 47.0792C231.535 47.302 231.708 47.5661 231.823 47.856C231.938 48.1459 231.994 48.4557 231.986 48.7672C231.986 48.8258 231.975 48.8838 231.952 48.9379C231.929 48.9919 231.896 49.041 231.854 49.0822C231.812 49.1234 231.762 49.1559 231.708 49.1779C231.653 49.1999 231.594 49.2109 231.535 49.2102Z" fill="#C27457"/>
<path opacity="0.3" d="M211.353 48.6001C211.353 49.9147 213.06 50.9787 215.166 50.9787C217.273 50.9787 218.979 49.9147 218.979 48.6001C218.979 47.2855 217.273 46.2203 215.166 46.2203C213.06 46.2203 211.353 47.2867 211.353 48.6001Z" fill="#AB664C"/>
<path opacity="0.3" d="M240.27 48.6001C240.27 49.9147 241.977 50.9787 244.083 50.9787C246.189 50.9787 247.898 49.9147 247.898 48.6001C247.898 47.2855 246.192 46.2203 244.083 46.2203C241.974 46.2203 240.27 47.2867 240.27 48.6001Z" fill="#AB664C"/>
<path d="M210.695 7.24847C202.025 11.9488 199.687 23.4691 199.687 23.4691C199.019 30.5698 198.987 33.2826 201.116 41.4268C201.116 41.4268 204.147 41.888 205.368 45.5618C205.328 45.5618 206.316 36.2785 206.35 36.0945C207.683 28.9841 211.347 27.9104 211.347 27.9104C218.969 22.5721 216.148 20.0906 216.148 20.0882C216.28 20.8229 218.303 22.1702 218.973 22.33C222.374 23.1338 226.005 22.4051 229.026 22.5104C234.4 22.698 242.283 23.8952 246.771 27.1841C246.771 27.1841 254.482 32.1907 254.482 44.3804C254.482 44.3804 255.472 40.5625 258.291 41.5636C258.291 41.5636 263.714 17.764 250.002 7.55956C250.002 7.55956 226.222 -2.65459 210.687 7.24483" fill="#4A2724"/>
<path d="M215.147 35.5135C215.95 34.7533 216.952 34.4107 218.034 34.2606C218.522 34.1928 218.777 33.5876 218.661 33.1712C218.52 32.6579 218.042 32.4836 217.564 32.5502C216.186 32.7173 214.898 33.315 213.885 34.257C213.049 35.0511 214.317 36.3063 215.152 35.5135H215.147Z" fill="#4A2724"/>
<path d="M244.1 35.5135C243.296 34.7533 242.295 34.4107 241.211 34.2606C240.724 34.1928 240.47 33.5876 240.586 33.1712C240.729 32.6579 241.205 32.4836 241.683 32.5502C243.062 32.7163 244.352 33.3141 245.367 34.257C246.204 35.0511 244.935 36.3063 244.1 35.5135Z" fill="#4A2724"/>
<path opacity="0.1" d="M232.157 11.7163C232.157 11.7163 219.901 9.76987 215.931 13.3771C215.931 13.3771 217.941 11.1825 221.544 9.61129C221.544 9.61129 217.954 8.45648 215.693 10.7383C215.693 10.7383 218.713 4.03092 231.705 6.81263C231.705 6.81263 226.135 7.0632 223.222 9.28204C223.228 9.28204 228.766 8.56422 232.157 11.7163Z" fill="white"/>
<path d="M229.513 59.3142C228.616 59.3142 228.113 58.9656 228.082 58.9426C227.997 58.8792 227.939 58.7852 227.923 58.6806C227.906 58.5759 227.932 58.469 227.993 58.3826C228.055 58.2963 228.149 58.2374 228.254 58.2185C228.358 58.1996 228.467 58.2223 228.555 58.2816C228.599 58.3095 229.366 58.7961 230.778 58.2369C230.879 58.1976 230.991 58.1994 231.09 58.2419C231.189 58.2843 231.267 58.364 231.307 58.4635C231.347 58.563 231.346 58.6741 231.304 58.7728C231.262 58.8714 231.182 58.9494 231.082 58.9898C230.585 59.1967 230.052 59.3069 229.513 59.3142Z" fill="#C27457"/>
<path d="M229.595 57.0796C228.985 57.0796 228.239 56.5107 227.78 56.15C227.545 55.9648 227.414 55.8946 227.553 55.5653C227.643 55.3498 228.244 55.3692 228.575 55.3934C229.139 55.4447 229.706 55.456 230.271 55.4273C230.599 55.4116 231.734 55.2603 231.756 55.6973C231.773 56.2154 230.07 57.0796 229.595 57.0796Z" fill="#C27457"/>
<path opacity="0.1" d="M256.684 34.6419C256.684 34.6419 255.355 25.3756 251.827 23.3287C251.827 23.3287 253.88 24.2825 255.838 26.5244C255.838 26.5244 255.874 23.6809 253.702 22.5673C253.702 22.5673 259.278 23.2391 260.162 33.2196C260.162 33.2196 258.729 29.2661 256.453 27.6647C256.456 27.6622 258.224 31.4898 256.684 34.6419Z" fill="white"/>
<path opacity="0.1" d="M238.916 9.94539C238.916 9.94539 250.582 14.1567 252.288 19.225C252.288 19.225 251.605 16.3356 249.225 13.2246C249.225 13.2246 252.924 13.9509 253.781 17.028C253.781 17.028 254.42 9.70814 241.704 5.87329C241.704 5.87329 246.451 8.77848 247.912 12.1243C247.913 12.1243 243.426 8.82569 238.916 9.94539Z" fill="white"/>
<path opacity="0.1" d="M212.877 21.3628C212.877 21.3628 203.735 29.6946 204.113 35.0256C204.113 35.0256 203.625 32.0975 204.625 28.3159C204.625 28.3159 201.486 30.3943 201.884 33.567C201.884 33.567 198.471 27.0497 208.728 18.6634C208.728 18.6634 205.468 23.1543 205.409 26.8003C205.409 26.8003 208.283 22.0455 212.877 21.3628Z" fill="white"/>
<path opacity="0.1" d="M221.163 15.2679C221.163 15.2679 233.205 18.2615 237.475 15.0077C237.475 15.0077 235.281 17.022 231.554 18.276C231.554 18.276 235.03 19.7286 237.475 17.6538C237.475 17.6538 233.882 24.0767 221.181 20.1959C221.181 20.1959 226.752 20.4247 229.848 18.4637C229.848 18.4612 224.268 18.6997 221.163 15.2679Z" fill="white"/>
<path d="M222.638 41.4994C222.638 42.4252 222.362 43.3302 221.844 44.1C221.326 44.8698 220.59 45.4698 219.729 45.8241C218.867 46.1784 217.92 46.2711 217.005 46.0904C216.091 45.9098 215.251 45.464 214.592 44.8094C213.932 44.1547 213.484 43.3206 213.302 42.4126C213.12 41.5046 213.213 40.5634 213.57 39.7081C213.927 38.8527 214.531 38.1217 215.306 37.6073C216.081 37.093 216.992 36.8184 217.925 36.8184C219.175 36.8184 220.374 37.3116 221.258 38.1894C222.142 39.0673 222.638 40.2579 222.638 41.4994Z" fill="white"/>
<path d="M221.758 41.4993C221.758 43.2521 220.398 44.6745 218.722 44.6745C217.046 44.6745 215.684 43.2521 215.684 41.4993C215.684 39.7465 217.043 38.3242 218.722 38.3242C220.4 38.3242 221.758 39.7453 221.758 41.4993Z" fill="#79432C"/>
<path d="M217.925 46.1791H217.759C217.602 46.1883 217.444 46.1859 217.287 46.1719C217.041 46.1537 216.796 46.116 216.556 46.0593C216.242 45.9834 215.936 45.8747 215.645 45.7349C215.301 45.5628 214.978 45.3516 214.682 45.1054C214.345 44.8341 214.05 44.5152 213.806 44.1588C213.544 43.775 213.339 43.356 213.196 42.9144C213.058 42.4508 212.984 41.9707 212.977 41.4872C212.988 41.012 213.061 40.5403 213.196 40.0843C213.339 39.6426 213.545 39.2232 213.806 38.8387C214.049 38.4814 214.342 38.161 214.677 37.8872C214.973 37.6413 215.297 37.4304 215.642 37.259C215.933 37.1188 216.238 37.0097 216.552 36.9334C216.793 36.8764 217.037 36.8392 217.284 36.822C217.441 36.8074 217.6 36.8049 217.758 36.8147H217.924L217.758 36.8353C217.603 36.8509 217.448 36.8744 217.296 36.9055C217.059 36.9495 216.827 37.0122 216.601 37.0932C216.313 37.2019 216.033 37.3314 215.764 37.4805C215.452 37.6635 215.164 37.8816 214.903 38.1305C214.44 38.5643 214.071 39.0877 213.82 39.6683C213.568 40.2489 213.439 40.8745 213.44 41.5066C213.445 41.9384 213.507 42.3678 213.624 42.7837C213.859 43.5767 214.3 44.2943 214.903 44.8645C215.164 45.1136 215.454 45.3317 215.766 45.5146C216.035 45.6637 216.315 45.7932 216.603 45.9019C216.979 46.0301 217.367 46.1165 217.761 46.1598L217.925 46.1791Z" fill="#C27457"/>
<path d="M236.613 41.4994C236.613 42.4253 236.89 43.3303 237.408 44.1001C237.926 44.87 238.662 45.4699 239.524 45.8242C240.385 46.1784 241.333 46.2711 242.247 46.0903C243.162 45.9096 244.001 45.4637 244.661 44.8089C245.32 44.1542 245.769 43.32 245.95 42.4119C246.132 41.5038 246.039 40.5625 245.682 39.7072C245.325 38.8519 244.72 38.1209 243.945 37.6067C243.17 37.0925 242.258 36.8182 241.326 36.8184C240.707 36.8184 240.094 36.9395 239.522 37.1748C238.95 37.41 238.431 37.7548 237.993 38.1895C237.556 38.6242 237.209 39.1402 236.972 39.7082C236.735 40.2761 236.613 40.8847 236.613 41.4994Z" fill="white"/>
<path d="M237.494 41.4993C237.494 43.2521 238.854 44.6745 240.53 44.6745C242.206 44.6745 243.566 43.2521 243.566 41.4993C243.566 39.7465 242.207 38.3242 240.53 38.3242C238.853 38.3242 237.494 39.7453 237.494 41.4993Z" fill="#79432C"/>
<path d="M241.326 46.1791L241.492 46.1597C241.647 46.1443 241.802 46.1205 241.955 46.0883C242.191 46.0453 242.424 45.9829 242.65 45.9019C242.938 45.7929 243.218 45.6635 243.487 45.5146C243.799 45.3317 244.089 45.1136 244.35 44.8645C244.951 44.295 245.391 43.5787 245.626 42.7873C245.743 42.3714 245.805 41.9421 245.81 41.5102C245.808 41.0706 245.746 40.6334 245.626 40.2102C245.503 39.8056 245.328 39.4183 245.106 39.0578C244.893 38.7206 244.639 38.4105 244.35 38.1342C244.089 37.8851 243.799 37.667 243.487 37.4841C243.217 37.335 242.937 37.2055 242.648 37.0968C242.422 37.0157 242.19 36.953 241.954 36.9092C241.801 36.878 241.647 36.8546 241.492 36.8389L241.326 36.8184H241.493C241.65 36.8085 241.809 36.8109 241.966 36.8256C242.212 36.8427 242.457 36.88 242.697 36.937C243.012 37.0133 243.317 37.1224 243.609 37.2626C243.954 37.4338 244.277 37.6447 244.572 37.8909C244.908 38.1636 245.202 38.4843 245.443 38.8423C245.705 39.2265 245.911 39.646 246.053 40.0879C246.188 40.544 246.261 41.0157 246.271 41.4909C246.264 41.9743 246.19 42.4545 246.052 42.918C245.91 43.3601 245.704 43.7796 245.442 44.1636C245.199 44.5209 244.906 44.8414 244.571 45.1151C244.275 45.3608 243.952 45.5716 243.608 45.7433C243.316 45.8832 243.011 45.9919 242.696 46.0678C242.456 46.1245 242.211 46.1622 241.965 46.1803C241.808 46.1944 241.65 46.1968 241.493 46.1876L241.326 46.1791Z" fill="#C27457"/>
<path d="M243.626 40.1509C243.626 40.3647 243.562 40.5737 243.442 40.7515C243.323 40.9293 243.153 41.0679 242.954 41.1497C242.755 41.2314 242.536 41.2528 242.325 41.211C242.113 41.1692 241.92 41.0661 241.767 40.9148C241.615 40.7635 241.512 40.5708 241.47 40.361C241.428 40.1512 241.45 39.9338 241.532 39.7363C241.615 39.5388 241.754 39.3701 241.934 39.2515C242.113 39.1328 242.323 39.0696 242.539 39.0699C242.682 39.0699 242.823 39.0979 242.955 39.1522C243.087 39.2065 243.207 39.2862 243.308 39.3866C243.409 39.487 243.489 39.6061 243.544 39.7373C243.598 39.8684 243.626 40.009 243.626 40.1509Z" fill="white"/>
<path d="M217.602 40.1509C217.602 40.3647 217.538 40.5736 217.418 40.7514C217.299 40.9292 217.129 41.0677 216.93 41.1495C216.731 41.2314 216.512 41.2528 216.301 41.2111C216.09 41.1693 215.896 41.0664 215.743 40.9152C215.591 40.764 215.488 40.5714 215.446 40.3617C215.404 40.1521 215.425 39.9347 215.508 39.7372C215.59 39.5397 215.729 39.3708 215.908 39.2521C216.087 39.1333 216.298 39.0699 216.513 39.0699C216.802 39.0699 217.079 39.1838 217.283 39.3865C217.487 39.5892 217.602 39.8642 217.602 40.1509Z" fill="white"/>
<path d="M241.634 41.4994C241.634 41.7163 241.57 41.9285 241.449 42.109C241.328 42.2895 241.155 42.4303 240.953 42.5135C240.752 42.5967 240.529 42.6186 240.315 42.5764C240.101 42.5342 239.904 42.4299 239.749 42.2765C239.595 42.1232 239.49 41.9278 239.447 41.715C239.404 41.5022 239.426 41.2817 239.509 41.0812C239.593 40.8807 239.735 40.7094 239.916 40.5888C240.098 40.4682 240.311 40.4039 240.53 40.4039C240.675 40.4029 240.819 40.4306 240.953 40.4853C241.088 40.54 241.21 40.6206 241.313 40.7225C241.415 40.8244 241.497 40.9456 241.552 41.0789C241.607 41.2123 241.635 41.3552 241.634 41.4994Z" fill="#3D1F0B"/>
<path d="M219.824 41.4994C219.824 41.7163 219.759 41.9284 219.637 42.1086C219.516 42.2889 219.343 42.4293 219.141 42.5121C218.939 42.5948 218.717 42.6161 218.503 42.5734C218.289 42.5306 218.093 42.4257 217.938 42.2719C217.784 42.118 217.68 41.9223 217.638 41.7094C217.596 41.4965 217.619 41.276 217.703 41.0759C217.788 40.8759 217.93 40.7052 218.112 40.5856C218.294 40.4659 218.508 40.4027 218.727 40.4039C218.871 40.4039 219.015 40.4323 219.148 40.4874C219.282 40.5425 219.403 40.6233 219.505 40.7251C219.607 40.8269 219.687 40.9477 219.742 41.0806C219.797 41.2135 219.825 41.3558 219.824 41.4994Z" fill="#3D1F0B"/>
<path d="M343.866 60.5998C343.866 60.5998 337.007 70.0186 323.457 73.3826C323.457 73.3826 322.147 78.733 325.215 80.2292C325.215 80.2292 341.834 71.6141 346.303 62.0221C346.297 62.0221 346.63 59.2513 343.866 60.5998Z" fill="#F8B78F"/>
<path d="M350 57.7636C349.814 59.0631 349.312 60.298 348.537 61.3612C348.537 61.3612 347.401 62.9154 346.119 62.9457C346.119 62.9457 343.907 63.2895 343.334 61.2232C343.189 60.699 343.436 60.1228 343.562 59.6217C343.57 59.5854 343.579 59.5527 343.588 59.5188C343.727 58.9365 343.832 58.3398 343.768 57.7394C343.666 56.731 344.453 56.6729 344.453 56.6729C344.818 56.6318 345.121 56.9477 345.143 57.306C345.166 57.7454 345.171 58.1921 345.188 58.6375C345.345 59.2888 345.691 58.9269 345.691 58.9269C346.281 57.6389 346.691 55.9285 346.691 55.9285C346.948 55.3559 347.44 55.4987 347.44 55.4987C347.44 55.4987 347.991 55.4624 347.724 56.9792C347.724 56.9792 347.446 58.3507 346.805 59.4873C347.331 58.8349 347.902 56.8496 347.902 56.8496C347.967 55.8813 348.691 56.1403 348.691 56.1403C349.466 56.5773 348.721 58.1981 348.721 58.1981C348.092 59.6532 347.889 60.2826 347.889 60.2826L348.901 57.9149C348.901 57.9149 349.118 57.0324 349.577 57.145C349.577 57.1426 349.996 57.1559 350 57.7636Z" fill="#F8B78F"/>
<path d="M316.381 79.6638C316.381 79.6638 317.656 83.5798 322.188 82.6223L331.137 78.319C331.137 78.319 331.928 73.6114 328.577 70.6263C328.577 70.6263 322.952 72.4311 320.525 73.1163C317.667 73.9188 315.559 76.2163 316.381 79.6638Z" fill="#F2685F"/>
<path d="M276.737 59.3275C276.737 59.3275 282.966 69.1688 296.268 73.3995C296.268 73.3995 297.225 78.8225 294.067 80.1177C294.067 80.1177 278.045 70.4507 274.219 60.5913C274.219 60.5913 274.068 57.8047 276.737 59.3275Z" fill="#F8B78F"/>
<path d="M270.801 56.104C270.903 57.4126 271.324 58.6768 272.028 59.7875C272.028 59.7875 273.055 61.4108 274.336 61.5222C274.336 61.5222 276.52 62.0064 277.228 59.9824C277.408 59.4692 277.198 58.8772 277.106 58.3688C277.106 58.3337 277.093 58.2998 277.087 58.2647C276.986 57.6752 276.921 57.0724 277.024 56.4768C277.192 55.4782 276.414 55.3692 276.414 55.3692C276.048 55.3051 275.729 55.6016 275.683 55.9563C275.63 56.3945 275.596 56.8388 275.551 57.2782C275.351 57.9173 275.029 57.5348 275.029 57.5348C274.526 56.2117 274.227 54.4771 274.227 54.4771C274.008 53.89 273.508 54.0001 273.508 54.0001C273.508 54.0001 272.961 53.9287 273.128 55.46C273.128 55.46 273.316 56.8472 273.881 58.0226C273.394 57.3375 272.96 55.3196 272.96 55.3196C272.96 54.3512 272.219 54.5606 272.219 54.5606C271.416 54.9468 272.055 56.6184 272.055 56.6184C272.585 58.1158 272.748 58.7538 272.748 58.7538L271.894 56.3328C271.894 56.3328 271.735 55.4382 271.269 55.5205C271.264 55.5108 270.852 55.4975 270.801 56.104Z" fill="#F8B78F"/>
<path d="M302.92 80.1226C302.92 80.1226 301.391 83.949 296.931 82.7009L288.277 77.8251C288.277 77.8251 287.789 73.0775 291.334 70.32C291.334 70.32 296.83 72.4832 299.206 73.3245C302.012 74.3074 303.963 76.7356 302.92 80.1226Z" fill="#F2685F"/>
<path d="M308.409 113.986H299.51C299.363 115.473 298.484 125.97 301.187 142.013L304.309 142.396C304.309 142.396 303.011 129.047 308.409 113.986Z" fill="#F8B78F"/>
<path d="M304.168 138.472H300.633C300.799 139.621 300.981 140.799 301.185 142.013L304.308 142.396C304.308 142.396 304.164 140.946 304.168 138.472Z" fill="white"/>
<path d="M301.182 142.013L296.507 144.32C296.507 144.32 295.07 144.683 294.646 146.458C294.646 146.458 301.594 147.709 305.088 146.408L304.305 142.396L301.182 142.013Z" fill="#F8B78F"/>
<path d="M301.182 142.013L296.507 144.32C296.507 144.32 295.07 144.683 294.646 146.458C294.646 146.458 301.594 147.709 305.088 146.408L304.305 142.396L301.182 142.013Z" fill="white"/>
<path d="M304.305 142.396L305.088 146.408C301.588 147.709 294.646 146.458 294.646 146.458C295.07 144.684 296.507 144.32 296.507 144.32L301.182 142.013C301.182 142.013 302.721 143.147 304.305 142.396Z" fill="#0099B6"/>
<path d="M304.873 145.302L305.088 146.408C301.588 147.709 294.646 146.458 294.646 146.458C294.698 146.236 294.772 146.021 294.866 145.814C294.866 145.814 302.919 146.886 304.873 145.302Z" fill="white"/>
<path d="M300.213 142.475C300.683 142.642 301.172 143.096 301.31 143.583C301.385 143.864 300.944 143.988 300.874 143.704C300.81 143.525 300.708 143.361 300.575 143.224C300.443 143.086 300.283 142.978 300.105 142.906C299.832 142.808 299.944 142.371 300.219 142.47L300.213 142.475Z" fill="white"/>
<path d="M299.451 142.865C299.919 143.168 300.304 143.505 300.564 143.999C300.701 144.257 300.313 144.489 300.176 144.233C299.953 143.83 299.625 143.493 299.228 143.257C298.984 143.099 299.206 142.705 299.451 142.865Z" fill="white"/>
<path d="M298.657 143.304C299.058 143.606 299.511 143.934 299.625 144.449C299.69 144.733 299.259 144.859 299.191 144.571C299.094 144.141 298.673 143.871 298.338 143.623C298.104 143.448 298.423 143.128 298.654 143.299L298.657 143.304Z" fill="white"/>
<path d="M297.804 143.716C298.209 143.984 298.54 144.349 298.767 144.778C298.903 145.034 298.516 145.262 298.379 145.01C298.193 144.647 297.918 144.337 297.58 144.107C297.336 143.945 297.563 143.551 297.804 143.716Z" fill="white"/>
<path d="M312.392 113.986H321.29C321.438 115.473 322.318 125.97 319.614 142.013L316.493 142.396C316.493 142.396 317.791 129.047 312.392 113.986Z" fill="#F8B78F"/>
<path d="M316.633 138.472H320.168C320.002 139.621 319.82 140.799 319.616 142.013L316.494 142.396C316.494 142.396 316.637 140.946 316.633 138.472Z" fill="white"/>
<path d="M319.619 142.013L324.294 144.32C324.294 144.32 325.732 144.683 326.156 146.458C326.156 146.458 319.208 147.709 315.713 146.408L316.498 142.396L319.619 142.013Z" fill="#F8B78F"/>
<path d="M319.619 142.013L324.294 144.32C324.294 144.32 325.732 144.683 326.156 146.458C326.156 146.458 319.208 147.709 315.713 146.408L316.498 142.396L319.619 142.013Z" fill="white"/>
<path d="M316.498 142.396L315.713 146.408C319.215 147.709 326.156 146.458 326.156 146.458C325.732 144.684 324.294 144.32 324.294 144.32L319.619 142.013C319.619 142.013 318.08 143.147 316.498 142.396Z" fill="#0099B6"/>
<path d="M315.93 145.302L315.713 146.408C319.215 147.709 326.156 146.458 326.156 146.458C326.104 146.236 326.029 146.021 325.935 145.814C325.935 145.814 317.884 146.886 315.93 145.302Z" fill="white"/>
<path d="M320.585 142.475C320.114 142.642 319.625 143.096 319.488 143.583C319.412 143.864 319.853 143.988 319.923 143.704C319.987 143.525 320.09 143.361 320.222 143.223C320.355 143.086 320.515 142.978 320.693 142.906C320.965 142.808 320.854 142.371 320.579 142.47L320.585 142.475Z" fill="white"/>
<path d="M321.35 142.865C320.883 143.168 320.497 143.505 320.237 143.999C320.101 144.257 320.488 144.489 320.626 144.233C320.849 143.83 321.176 143.493 321.573 143.257C321.817 143.099 321.596 142.705 321.35 142.865Z" fill="white"/>
<path d="M322.144 143.304C321.744 143.606 321.29 143.934 321.176 144.449C321.112 144.733 321.548 144.859 321.611 144.571C321.709 144.141 322.128 143.871 322.464 143.623C322.697 143.448 322.379 143.128 322.147 143.299L322.144 143.304Z" fill="white"/>
<path d="M322.998 143.716C322.593 143.985 322.261 144.349 322.034 144.778C321.897 145.034 322.285 145.262 322.423 145.01C322.609 144.647 322.883 144.337 323.221 144.107C323.465 143.945 323.24 143.551 322.998 143.716Z" fill="white"/>
<path d="M311.596 113.809V120.823C316.646 123.204 322.531 120.823 322.531 120.823V100.676H298.4V120.823C298.4 120.823 304.283 123.204 309.334 120.823V113.809H311.596Z" fill="#0B355C"/>
<path d="M285.601 19.2469C285.601 19.2469 289.287 17.5219 290.739 20.3036L292.745 19.3982C292.745 19.3982 290.533 15.383 293.997 11.9694C293.997 11.9694 290.316 13.2416 290.462 17.0534C290.457 17.0559 287.169 16.3622 285.601 19.2469Z" fill="#B77327"/>
<path d="M314.115 69.8068H306.685V73.3402H314.115V69.8068Z" fill="#FBB88E"/>
<path d="M314.115 70.8551V69.8068H306.679V71.959C309.607 72.1914 312.1 71.6927 314.115 70.8551Z" fill="#E69D82"/>
<path d="M335.075 49.1763C335.075 61.1796 323.999 70.912 310.331 70.912C296.663 70.912 285.587 61.1796 285.587 49.1763C285.587 37.1731 296.664 27.4419 310.331 27.4419C323.998 27.4419 335.075 37.1731 335.075 49.1763Z" fill="#F8B78F"/>
<path d="M282.478 53.5317C282.6 55.4975 283.986 57.0143 285.571 56.9211C287.155 56.8279 288.344 55.1501 288.221 53.1831C288.098 51.216 286.714 49.7017 285.127 49.7997C283.54 49.8978 282.356 51.5671 282.478 53.5317Z" fill="#F8B78F"/>
<path d="M283.895 50.9C284.058 50.785 284.393 50.733 284.596 50.7294C285.645 50.7088 286.402 52.4846 285.344 52.7436C284.931 53.137 285.315 53.637 285.315 53.637C285.652 54.0715 286.108 54.6986 285.971 55.2869C285.888 55.6367 285.515 55.8098 285.184 55.8812C284.916 55.9357 284.877 55.713 285.089 55.6173C285.251 55.5396 285.393 55.4262 285.504 55.2857C285.515 55.2651 285.527 55.2457 285.538 55.2276C285.548 55.2141 285.557 55.1999 285.565 55.1852C285.601 55.1042 285.61 55.0138 285.59 54.9274C285.346 55.0968 284.952 55.1174 284.781 54.8741C284.596 54.6102 284.763 54.2156 284.713 53.919C284.667 53.7127 284.594 53.5133 284.496 53.3259C284.059 52.441 284.931 52.3393 284.931 52.3393C285.037 52.3462 285.142 52.3595 285.247 52.3793C285.696 52.1517 285.247 51.4254 284.98 51.2995C284.833 51.2206 284.666 51.1899 284.501 51.2116C284.336 51.2334 284.182 51.3065 284.062 51.4206C283.834 51.6953 283.714 52.0428 283.724 52.3986C283.727 52.8103 283.803 53.2182 283.951 53.6031C284.035 53.821 284.143 54.0776 284.229 54.2931C284.326 54.5352 284.059 54.6332 283.962 54.3851C283.758 53.8658 283.368 53.0983 283.313 52.389C283.261 51.8091 283.388 51.2523 283.895 50.9Z" fill="#E69D82"/>
<path d="M338.186 53.5317C338.064 55.4975 336.678 57.0143 335.092 56.9211C333.507 56.8279 332.321 55.1501 332.444 53.1831C332.567 51.216 333.95 49.7017 335.536 49.7997C337.122 49.8978 338.307 51.5671 338.186 53.5317Z" fill="#F8B78F"/>
<path d="M336.772 50.9C336.61 50.785 336.276 50.733 336.072 50.7294C335.023 50.7088 334.266 52.4846 335.324 52.7436C335.738 53.137 335.352 53.637 335.352 53.637C335.016 54.0715 334.561 54.6986 334.699 55.2869C334.782 55.6367 335.153 55.8098 335.485 55.8812C335.751 55.9357 335.791 55.713 335.579 55.6173C335.417 55.5394 335.275 55.426 335.163 55.2857C335.153 55.2657 335.141 55.2463 335.129 55.2276C335.119 55.2141 335.111 55.1999 335.103 55.1852C335.067 55.1043 335.058 55.0136 335.079 54.9274C335.323 55.0968 335.715 55.1174 335.887 54.8741C336.072 54.6102 335.904 54.2156 335.957 53.919C336.001 53.7122 336.074 53.5126 336.174 53.3259C336.609 52.441 335.738 52.3393 335.738 52.3393C335.632 52.3462 335.526 52.3595 335.422 52.3793C334.972 52.1517 335.422 51.4254 335.687 51.2995C335.834 51.2206 336.002 51.1899 336.167 51.2116C336.333 51.2333 336.487 51.3065 336.608 51.4206C336.834 51.6962 336.954 52.0431 336.945 52.3986C336.941 52.8103 336.864 53.218 336.717 53.6031C336.633 53.821 336.527 54.0776 336.439 54.2931C336.342 54.5352 336.609 54.6332 336.708 54.3851C336.91 53.8658 337.301 53.0983 337.355 52.389C337.406 51.8091 337.277 51.2523 336.772 50.9Z" fill="#E69D82"/>
<path d="M312.109 56.967C312 56.9667 311.895 56.9232 311.817 56.8461C311.74 56.7689 311.696 56.6644 311.696 56.5555C311.686 56.2031 311.537 55.8686 311.282 55.6231C311.028 55.3776 310.687 55.2402 310.332 55.2402C309.977 55.2402 309.636 55.3776 309.381 55.6231C309.126 55.8686 308.978 56.2031 308.967 56.5555C308.967 56.6643 308.923 56.7687 308.846 56.8456C308.768 56.9226 308.663 56.9658 308.554 56.9658C308.444 56.9658 308.339 56.9226 308.262 56.8456C308.184 56.7687 308.141 56.6643 308.141 56.5555C308.141 55.9776 308.372 55.4234 308.783 55.0148C309.195 54.6061 309.753 54.3766 310.335 54.3766C310.917 54.3766 311.475 54.6061 311.886 55.0148C312.298 55.4234 312.529 55.9776 312.529 56.5555C312.529 56.6099 312.518 56.6639 312.497 56.7141C312.476 56.7644 312.445 56.8099 312.406 56.8482C312.367 56.8865 312.32 56.9167 312.27 56.9371C312.219 56.9575 312.164 56.9677 312.109 56.967Z" fill="#E89D7F"/>
<path opacity="0.3" d="M293.327 56.4006C293.327 57.6232 294.911 58.6146 296.874 58.6146C298.836 58.6146 300.423 57.6232 300.423 56.4006C300.423 55.178 298.839 54.1854 296.874 54.1854C294.909 54.1854 293.327 55.178 293.327 56.4006Z" fill="#F27383"/>
<path opacity="0.3" d="M320.237 56.4006C320.237 57.6232 321.822 58.6146 323.787 58.6146C325.752 58.6146 327.336 57.6232 327.336 56.4006C327.336 55.178 325.746 54.1854 323.787 54.1854C321.828 54.1854 320.237 55.178 320.237 56.4006Z" fill="#F27383"/>
<path d="M292.715 18.4891C284.043 20.1838 282.469 33.5876 282.469 33.5876C281.847 40.1957 281.818 42.7208 283.798 50.3009C283.798 50.3009 283.997 49.8433 285.599 49.8167C285.561 49.8167 286.42 47.0108 286.452 46.8389C287.693 40.2235 293.327 37.719 293.327 37.719C300.42 32.756 297.793 30.4403 297.793 30.4391C297.915 31.123 299.799 32.3759 300.423 32.5248C303.593 33.2729 306.967 32.595 309.779 32.693C314.776 32.8661 320.196 33.193 324.373 36.2543C327.979 38.8968 330.86 42.4496 333.201 46.213C333.426 46.5762 334.897 49.8215 335.064 49.7888C335.064 49.7888 335.91 49.6327 337.015 50.4256C337.015 50.4256 341.037 27.1126 328.647 20.5796C328.647 20.5796 307.173 9.2736 292.715 18.4867" fill="#A36621"/>
<path d="M298.245 31.1097C296.395 26.873 294.613 22.6181 292.353 18.5787C284.004 20.5784 282.469 33.5888 282.469 33.5888C281.847 40.1969 281.818 42.722 283.798 50.3021C283.798 50.3021 283.997 49.8445 285.599 49.8179C285.561 49.8179 286.42 47.012 286.452 46.8401C287.693 40.2247 293.327 37.7202 293.327 37.7202C298.417 34.1553 298.501 31.9595 298.143 31.002C298.175 31.0383 298.211 31.0722 298.245 31.1097Z" fill="#B77327"/>
<path d="M296.861 44.2218C297.609 43.5136 298.541 43.1953 299.55 43.0549C300.001 42.9931 300.239 42.429 300.132 42.0368C299.999 41.5587 299.557 41.3965 299.106 41.4582C297.824 41.6159 296.625 42.1742 295.683 43.0524C294.904 43.7908 296.084 44.959 296.861 44.2218Z" fill="#B77327"/>
<path d="M323.803 44.2218C323.054 43.5136 322.123 43.1953 321.114 43.0549C320.663 42.9931 320.424 42.429 320.532 42.0368C320.665 41.5587 321.108 41.3965 321.557 41.4582C322.84 41.6159 324.038 42.1742 324.98 43.0524C325.76 43.7908 324.579 44.959 323.803 44.2218Z" fill="#B77327"/>
<path d="M299.532 54.511C299.133 54.511 299.133 55.1271 299.532 55.1271C299.932 55.1271 299.933 54.511 299.532 54.511Z" fill="#C88972"/>
<path d="M296.634 54.7858C296.234 54.7858 296.234 55.4031 296.634 55.4031C297.034 55.4031 297.035 54.7858 296.634 54.7858Z" fill="#C88972"/>
<path d="M298.429 56.087C298.028 56.087 298.028 56.7044 298.429 56.7044C298.83 56.7044 298.829 56.087 298.429 56.087Z" fill="#C88972"/>
<path d="M301.119 55.7444C300.718 55.7444 300.718 56.3606 301.119 56.3606C301.521 56.3606 301.521 55.7444 301.119 55.7444Z" fill="#C88972"/>
<path d="M296.084 56.4986C295.683 56.4986 295.683 57.1147 296.084 57.1147C296.485 57.1147 296.483 56.4986 296.084 56.4986Z" fill="#C88972"/>
<path d="M299.187 57.8011C298.786 57.8011 298.786 58.4172 299.187 58.4172C299.589 58.4172 299.589 57.8011 299.187 57.8011Z" fill="#C88972"/>
<path d="M322.993 54.511C322.594 54.511 322.594 55.1271 322.993 55.1271C323.393 55.1271 323.394 54.511 322.993 54.511Z" fill="#C88972"/>
<path d="M320.097 54.7858C319.696 54.7858 319.696 55.4031 320.097 55.4031C320.498 55.4031 320.496 54.7858 320.097 54.7858Z" fill="#C88972"/>
<path d="M321.89 56.087C321.489 56.087 321.489 56.7044 321.89 56.7044C322.291 56.7044 322.291 56.087 321.89 56.087Z" fill="#C88972"/>
<path d="M324.582 55.7444C324.181 55.7444 324.181 56.3606 324.582 56.3606C324.983 56.3606 324.981 55.7444 324.582 55.7444Z" fill="#C88972"/>
<path d="M319.544 56.4986C319.143 56.4986 319.143 57.1147 319.544 57.1147C319.945 57.1147 319.944 56.4986 319.544 56.4986Z" fill="#C88972"/>
<path d="M322.65 57.8011C322.248 57.8011 322.248 58.4172 322.65 58.4172C323.051 58.4172 323.049 57.8011 322.65 57.8011Z" fill="#C88972"/>
<path opacity="0.2" d="M296.542 31.6012C296.542 31.6012 286.804 37.7747 286.291 42.7208C286.291 42.7208 286.322 39.9596 287.85 36.6538C287.85 36.6538 284.635 38.0555 284.487 41.0273C284.487 41.0273 282.415 34.5076 293.178 28.4636C293.178 28.4636 289.46 32.0587 288.816 35.3912C288.816 35.3912 292.221 31.491 296.542 31.6012Z" fill="white"/>
<path d="M315.822 60.561H304.841C304.841 60.561 305.694 64.1199 310.333 64.3487C310.333 64.3487 314.289 64.6247 315.822 60.561Z" fill="#C37466"/>
<path d="M313.283 62.2799C311.19 60.2088 308.217 60.9847 306.673 63.1357C307.498 63.7555 308.667 64.2676 310.33 64.3462C311.645 64.3687 312.929 63.9471 313.972 63.1503C313.774 62.8369 313.543 62.5452 313.283 62.2799Z" fill="#F3917E"/>
<path d="M310.224 66.3666C309.39 66.3666 308.921 66.0421 308.893 66.0216C308.852 65.9928 308.817 65.9563 308.791 65.9143C308.764 65.8722 308.746 65.8254 308.738 65.7764C308.73 65.7274 308.731 65.6773 308.742 65.629C308.753 65.5806 308.774 65.5348 308.803 65.4944C308.832 65.4539 308.869 65.4195 308.911 65.3932C308.953 65.3668 309.001 65.349 309.05 65.3407C309.099 65.3325 309.15 65.3339 309.198 65.345C309.247 65.3561 309.293 65.3766 309.334 65.4054C309.374 65.4321 310.087 65.8896 311.406 65.363C311.499 65.3283 311.602 65.331 311.693 65.3706C311.784 65.4102 311.856 65.4835 311.894 65.5749C311.93 65.6668 311.928 65.7691 311.889 65.8597C311.85 65.9503 311.776 66.0219 311.684 66.0591C311.222 66.2537 310.726 66.3581 310.224 66.3666Z" fill="#F5A586"/>
<path d="M309.85 60.561H306.933C306.933 60.561 307.407 61.8345 309.847 62.0657L309.85 60.561Z" fill="white"/>
<path d="M310.599 60.561V62.0984C311.246 62.0766 312.965 61.8901 313.729 60.5598L310.599 60.561Z" fill="white"/>
<path d="M298.334 33.3213L295.782 24.9459L299.443 32.6507L298.334 33.3213Z" fill="#F8B78F"/>
<path d="M340.856 29.691C336.916 19.955 329.797 16.1395 329.797 16.1395C331.069 15.6989 334.377 14.4351 334.377 14.4351C319 10.0168 308.738 12.7622 308.738 12.7622C309.03 11.3435 310.599 9.38617 310.599 9.38617C310.599 9.38617 298.268 10.0168 292.715 18.4891L299.187 32.1132C299.187 32.1132 314.405 39.174 336.019 32.1059C336.019 32.1059 339.457 30.8095 340.856 29.691Z" fill="#B77327"/>
<path opacity="0.2" d="M314.217 18.2531C314.217 18.2531 305.492 17.3634 302.837 20.0688C302.837 20.0688 304.167 18.4419 306.645 17.189C306.645 17.189 304.067 16.5196 302.566 18.2168C302.566 18.2168 304.43 13.3663 313.705 14.8128C313.705 14.8128 309.786 15.2099 307.82 16.89C307.82 16.8876 311.697 16.1638 314.217 18.2531Z" fill="white"/>
<path opacity="0.2" d="M320.146 25.2279C320.146 25.2279 309.127 28.6802 304.982 25.8961C304.982 25.8961 307.135 27.6465 310.667 28.6052C310.667 28.6052 307.523 30.1522 305.132 28.3631C305.132 28.3631 308.835 34.1275 320.413 29.8084C320.413 29.8084 315.249 30.3313 312.263 28.6827C312.261 28.6778 317.457 28.5894 320.146 25.2279Z" fill="white"/>
<path opacity="0.2" d="M333.279 29.7588C333.157 29.1015 326.347 20.5433 321.22 20.0663C321.22 20.0663 324.766 19.6875 328.109 21.1727C328.109 21.1727 326.667 17.9952 323.673 17.8729C323.673 17.8729 330.22 15.7521 336.406 26.3863C336.406 26.3863 332.75 22.7294 329.391 22.1193C329.391 22.1193 332.201 24.1542 333.279 29.7588Z" fill="white"/>
<path d="M322.219 76.2841C321.515 74.0483 319.761 73.6852 319.761 73.6852L313.199 72.3984H307.603L301.04 73.6852C301.04 73.6852 299.285 74.0483 298.582 76.2841C298.149 88.8733 297.775 95.8832 297.034 106.003C297.034 106.003 302.505 108.212 310.4 108.005C318.296 108.212 323.769 106.003 323.769 106.003C323.463 100.713 322.849 89.1698 322.219 76.2841Z" fill="#FBB88E"/>
<path d="M314.581 72.6696L319.761 73.6852C319.761 73.6852 321.515 74.0484 322.219 76.2842C322.714 86.261 322.964 92.3002 323.769 106.003C323.769 106.003 318.296 108.212 310.4 108.005C302.505 108.212 297.034 106.003 297.034 106.003C297.643 95.2623 298.025 89.2413 298.582 76.2842C299.285 74.0484 301.04 73.6852 301.04 73.6852L305.998 72.7168C305.998 72.7168 306.068 75.8798 310.193 75.7963C310.193 75.7927 314.115 76.289 314.581 72.6696Z" fill="#F2685F"/>
<path d="M310.319 43.9107C312.824 43.8381 314.463 42.9968 314.463 42.9968L312.703 49.7901C312.023 47.6112 311.015 46.9962 310.32 46.8522C309.625 46.9962 308.614 47.6124 307.938 49.7901L306.177 42.9968C306.177 42.9968 307.815 43.8381 310.319 43.9107Z" fill="#2662A3"/>
<path d="M314.076 53.867C316.005 57.214 319.003 57.9936 322.682 57.9549C323.45 57.9464 324.189 57.8495 324.948 57.7769C328.92 57.3968 330.521 55.0472 330.521 55.0472C332.886 50.2755 331.565 45.5497 331.565 45.5497C331.054 42.4678 327.746 42.1155 327.746 42.1155C327.746 42.1155 322.661 41.0261 317.011 42.0901C314.645 42.5344 312.646 43.6807 312.501 46.2324C312.358 48.6922 312.83 51.7148 314.076 53.867ZM313.809 46.7118C313.94 44.5038 315.664 43.5137 317.709 43.1311C322.594 42.2112 326.993 43.1529 326.993 43.1529C326.993 43.1529 329.86 43.4568 330.3 46.1199C330.3 46.1199 331.439 50.2053 329.396 54.3355C329.396 54.3355 328.012 56.3643 324.577 56.6935C323.92 56.7565 323.285 56.8412 322.619 56.8472C319.434 56.8799 316.845 56.2045 315.174 53.315C314.094 51.4557 313.687 48.8435 313.809 46.713V46.7118Z" fill="#2662A3"/>
<path d="M328.407 42.2584C328.407 42.2584 331.59 42.843 333.19 42.9968C333.19 42.9968 333.955 43.0754 334.032 44.2133V47.2395C334.032 47.2395 334.304 48.2213 333.113 48.306C333.113 48.306 332.044 48.4597 331.894 49.7901H331.225C331.225 49.7901 332.48 44.2399 328.407 42.2584Z" fill="#2662A3"/>
<path opacity="0.3" d="M317.714 43.1323C315.664 43.5148 313.935 44.505 313.813 46.7129C313.692 48.8434 314.099 51.4557 315.179 53.3198C316.85 56.2093 319.445 56.8847 322.624 56.852C323.289 56.846 323.925 56.7613 324.582 56.6983C328.017 56.3691 329.401 54.3403 329.401 54.3403C331.444 50.2101 330.304 46.1247 330.304 46.1247C329.864 43.4616 327.002 43.1541 327.002 43.1541C327.002 43.1541 322.598 42.2123 317.714 43.1323Z" fill="#577570"/>
<path d="M308.161 46.2336C308.017 43.6819 306.018 42.5356 303.651 42.0913C298.006 41.0297 292.916 42.1167 292.916 42.1167C292.916 42.1167 289.613 42.469 289.103 45.5509C289.103 45.5509 287.782 50.2718 290.147 55.0484C290.147 55.0484 291.747 57.398 295.72 57.7781C296.478 57.8507 297.212 57.9476 297.984 57.956C301.664 57.9948 304.656 57.2152 306.591 53.8682C307.835 51.7147 308.305 48.6921 308.161 46.2336ZM305.488 53.3198C303.819 56.2093 301.222 56.8847 298.044 56.8521C297.379 56.846 296.74 56.7613 296.083 56.6983C292.652 56.3691 291.267 54.3403 291.267 54.3403C289.22 50.2101 290.365 46.1247 290.365 46.1247C290.805 43.4616 293.663 43.1541 293.663 43.1541C293.663 43.1541 298.067 42.2123 302.947 43.1323C304.996 43.5148 306.725 44.505 306.847 46.713C306.973 48.8434 306.567 51.4557 305.488 53.3198Z" fill="#2662A3"/>
<path d="M292.252 42.2584C292.252 42.2584 289.073 42.843 287.47 42.9968C287.47 42.9968 286.709 43.0754 286.631 44.2133V47.2395C286.631 47.2395 286.361 48.2213 287.544 48.306C287.544 48.306 288.619 48.4597 288.763 49.7901H289.431C289.431 49.7901 288.183 44.2399 292.252 42.2584Z" fill="#2662A3"/>
<path opacity="0.3" d="M302.947 43.1323C304.996 43.5148 306.725 44.505 306.847 46.7129C306.969 48.8434 306.564 51.4557 305.487 53.3198C303.818 56.2093 301.221 56.8847 298.043 56.852C297.377 56.846 296.739 56.7613 296.082 56.6983C292.65 56.3691 291.266 54.3403 291.266 54.3403C289.219 50.2101 290.364 46.1247 290.364 46.1247C290.804 43.4616 293.662 43.1541 293.662 43.1541C293.662 43.1541 298.067 42.2123 302.947 43.1323Z" fill="#577570"/>
<path d="M291.999 46.5883C292.086 46.0061 292.357 45.4664 292.773 45.0474" stroke="white" stroke-width="3.5" stroke-linecap="round" stroke-linejoin="round"/>
<path d="M292.252 52.2691C291.773 50.7852 291.621 49.2165 291.807 47.6693" stroke="white" stroke-width="3.5" stroke-linecap="round" stroke-linejoin="round"/>
<path d="M328.66 46.5883C328.573 46.0061 328.302 45.4664 327.886 45.0474" stroke="white" stroke-width="3.5" stroke-linecap="round" stroke-linejoin="round"/>
<path d="M328.408 52.2691C328.886 50.7852 329.038 49.2165 328.853 47.6693" stroke="white" stroke-width="3.5" stroke-linecap="round" stroke-linejoin="round"/>
<path d="M303.829 49.7925C303.829 50.6544 303.572 51.4969 303.09 52.2135C302.607 52.9302 301.922 53.4887 301.12 53.8185C300.318 54.1484 299.436 54.2347 298.585 54.0665C297.734 53.8984 296.952 53.4833 296.338 52.8739C295.724 52.2644 295.306 51.488 295.137 50.6426C294.968 49.7973 295.055 48.9211 295.387 48.1248C295.719 47.3285 296.281 46.648 297.003 46.1691C297.725 45.6903 298.573 45.4347 299.441 45.4347C300.605 45.4347 301.721 45.8938 302.544 46.7111C303.367 47.5283 303.829 48.6367 303.829 49.7925Z" fill="white"/>
<path d="M303.009 49.7925C303.009 51.4242 301.744 52.7473 300.183 52.7473C298.623 52.7473 297.357 51.4242 297.357 49.7925C297.357 48.1607 298.622 46.8376 300.183 46.8376C301.745 46.8376 303.009 48.1595 303.009 49.7925Z" fill="#70432E"/>
<path d="M299.442 54.1478L298.85 54.1297C298.756 54.1297 298.651 54.1236 298.539 54.1139L298.173 54.0232L297.755 53.919C297.607 53.8634 297.464 53.7975 297.325 53.7217C297.18 53.6443 297.017 53.5789 296.868 53.4796L296.427 53.1431C296.267 53.0295 296.124 52.8933 296.004 52.7388C295.862 52.5896 295.731 52.4311 295.611 52.2643C295.406 51.9012 295.164 51.538 295.063 51.1022C294.892 50.6798 294.9 50.2549 294.842 49.7707C294.903 49.3434 294.886 48.9233 295.06 48.4912C295.163 48.0433 295.406 47.6814 295.611 47.317C295.731 47.1512 295.862 46.9931 296.002 46.8437C296.123 46.6892 296.266 46.553 296.427 46.4394L296.868 46.1029C297.017 46.0048 297.18 45.9395 297.325 45.8608C297.463 45.7853 297.607 45.7194 297.754 45.6635L298.17 45.5594L298.535 45.4698C298.65 45.4589 298.756 45.4577 298.851 45.4528L299.445 45.4347L298.862 45.534C298.771 45.5497 298.668 45.5618 298.56 45.5848L298.22 45.7058L297.837 45.8475C297.702 45.9132 297.57 45.9863 297.443 46.0666C297.31 46.1501 297.162 46.2191 297.029 46.3208L296.639 46.6633C296.498 46.7783 296.374 46.9133 296.273 47.064C296.167 47.2165 296.029 47.3497 295.932 47.5155C295.755 47.8557 295.551 48.2007 295.466 48.582C295.312 48.933 295.327 49.3906 295.272 49.807C295.33 50.1701 295.308 50.6132 295.464 50.9788C295.55 51.3746 295.755 51.7159 295.932 52.0573C296.029 52.2219 296.166 52.3563 296.273 52.5076C296.374 52.6589 296.497 52.794 296.639 52.9083L297.029 53.2521C297.162 53.3537 297.31 53.4227 297.443 53.5063C297.57 53.5854 297.701 53.6581 297.836 53.7242L298.215 53.8646L298.554 53.9917C298.663 54.0147 298.768 54.0268 298.861 54.0425L299.442 54.1478Z" fill="#E89D7F"/>
<path d="M316.834 49.7925C316.834 50.6544 317.091 51.4969 317.574 52.2135C318.056 52.9302 318.741 53.4887 319.543 53.8185C320.345 54.1484 321.227 54.2347 322.078 54.0665C322.929 53.8984 323.711 53.4833 324.325 52.8739C324.939 52.2644 325.357 51.488 325.526 50.6426C325.695 49.7973 325.608 48.9211 325.276 48.1248C324.944 47.3285 324.382 46.648 323.66 46.1691C322.938 45.6903 322.09 45.4347 321.222 45.4347C320.058 45.4347 318.942 45.8938 318.119 46.7111C317.296 47.5283 316.834 48.6367 316.834 49.7925Z" fill="white"/>
<path d="M317.659 49.7925C317.659 51.4242 318.925 52.7473 320.485 52.7473C322.045 52.7473 323.31 51.4242 323.31 49.7925C323.31 48.1607 322.046 46.8376 320.485 46.8376C318.923 46.8376 317.659 48.1595 317.659 49.7925Z" fill="#70432E"/>
<path d="M321.22 54.1478L321.805 54.0486C321.897 54.0328 322.001 54.0207 322.112 53.9977L322.451 53.8706L322.83 53.7302C322.964 53.6642 323.095 53.5914 323.222 53.5123C323.355 53.4288 323.504 53.3598 323.637 53.2581L324.027 52.9143C324.169 52.8 324.292 52.6649 324.393 52.5137C324.5 52.3623 324.636 52.228 324.734 52.0633C324.911 51.722 325.115 51.3806 325.202 50.9848C325.359 50.6216 325.336 50.1713 325.393 49.813C325.339 49.3966 325.353 48.9391 325.2 48.588C325.114 48.2067 324.912 47.8617 324.734 47.5216C324.636 47.3557 324.499 47.2214 324.393 47.0701C324.291 46.9193 324.168 46.7843 324.027 46.6694L323.637 46.3268C323.503 46.2351 323.365 46.1503 323.222 46.0726C323.095 45.9924 322.964 45.9192 322.829 45.8535L322.446 45.7119L322.106 45.5908C321.997 45.5678 321.895 45.5557 321.804 45.54L321.22 45.4407L321.815 45.4589C321.91 45.4589 322.016 45.4649 322.13 45.4758L322.496 45.5654L322.91 45.6695C323.058 45.7254 323.202 45.7913 323.341 45.8668C323.486 45.9443 323.649 46.0097 323.798 46.1089L324.239 46.4467C324.399 46.5598 324.542 46.6956 324.663 46.8497C324.803 46.9998 324.934 47.1583 325.055 47.3243C325.259 47.6874 325.503 48.0506 325.605 48.4984C325.781 48.9354 325.763 49.3458 325.824 49.7779C325.766 50.2621 325.775 50.6894 325.603 51.1095C325.502 51.5428 325.259 51.9084 325.055 52.2728C324.934 52.4389 324.803 52.597 324.662 52.7461C324.542 52.9005 324.399 53.0367 324.239 53.1504L323.798 53.4869C323.649 53.5849 323.486 53.6503 323.341 53.729C323.202 53.8047 323.058 53.8707 322.91 53.9263L322.492 54.0304L322.127 54.1212C322.013 54.1309 321.91 54.1321 321.816 54.1369L321.22 54.1478Z" fill="#E89D7F"/>
<path d="M323.361 48.5408C323.361 48.7398 323.302 48.9343 323.191 49.0997C323.079 49.2651 322.921 49.394 322.736 49.4702C322.551 49.5463 322.347 49.5662 322.151 49.5274C321.954 49.4886 321.774 49.3928 321.632 49.2521C321.491 49.1114 321.394 48.9322 321.355 48.7371C321.316 48.542 321.336 48.3397 321.413 48.1559C321.489 47.9721 321.619 47.815 321.786 47.7044C321.952 47.5939 322.148 47.5349 322.348 47.5349C322.617 47.5349 322.875 47.6409 323.065 47.8295C323.255 48.0182 323.361 48.274 323.361 48.5408Z" fill="white"/>
<path d="M299.141 48.5408C299.141 48.7398 299.082 48.9343 298.97 49.0997C298.859 49.2651 298.701 49.394 298.516 49.4702C298.331 49.5463 298.127 49.5662 297.931 49.5274C297.734 49.4886 297.554 49.3928 297.412 49.2521C297.27 49.1114 297.174 48.9322 297.135 48.7371C297.096 48.542 297.116 48.3397 297.192 48.1559C297.269 47.9721 297.399 47.815 297.565 47.7044C297.732 47.5939 297.928 47.5349 298.128 47.5349C298.397 47.5349 298.655 47.6409 298.844 47.8295C299.034 48.0182 299.141 48.274 299.141 48.5408Z" fill="white"/>
<path d="M321.507 49.7925C321.507 49.9943 321.447 50.1916 321.334 50.3594C321.221 50.5272 321.061 50.658 320.873 50.7352C320.685 50.8125 320.479 50.8327 320.279 50.7933C320.08 50.7539 319.897 50.6568 319.753 50.514C319.61 50.3713 319.512 50.1895 319.472 49.9916C319.432 49.7936 319.453 49.5884 319.531 49.402C319.608 49.2155 319.74 49.0561 319.909 48.944C320.078 48.8319 320.277 48.772 320.48 48.772C320.615 48.772 320.748 48.7984 320.873 48.8497C320.998 48.901 321.111 48.9762 321.206 49.0709C321.302 49.1657 321.378 49.2782 321.429 49.402C321.481 49.5258 321.507 49.6585 321.507 49.7925Z" fill="#3D1F0B"/>
<path d="M301.21 49.7925C301.21 49.9944 301.149 50.1917 301.036 50.3595C300.923 50.5274 300.763 50.6582 300.575 50.7354C300.387 50.8126 300.181 50.8327 299.981 50.7932C299.782 50.7538 299.599 50.6564 299.455 50.5136C299.311 50.3708 299.214 50.1888 299.174 49.9908C299.135 49.7928 299.155 49.5876 299.233 49.4011C299.311 49.2147 299.443 49.0554 299.612 48.9434C299.781 48.8314 299.98 48.7718 300.183 48.772C300.318 48.772 300.452 48.7984 300.576 48.8497C300.701 48.901 300.814 48.9762 300.909 49.071C301.005 49.1658 301.08 49.2783 301.132 49.4021C301.183 49.5259 301.21 49.6585 301.21 49.7925Z" fill="#3D1F0B"/>
</g>
<defs>
<clipPath id="clip0_2090_112">
<rect width="237" height="147" fill="white" transform="translate(113)"/>
</clipPath>
</defs>
</svg>
