<svg width="217" height="177" viewBox="0 0 217 177" fill="none" xmlns="http://www.w3.org/2000/svg">
<path d="M216.732 175.824H0.250028" stroke="#27AC99" stroke-width="0.5" stroke-miterlimit="10" stroke-linecap="round"/>
<path d="M163.163 146.822L176.325 140.779L174.724 154.661L163.163 146.822Z" fill="#E3F8FF"/>
<path d="M34.7636 142.312L45.5755 153.119L49.0886 138.794L34.7636 142.312Z" fill="#FFF4D4"/>
<path d="M22.02 122.828L2.74153 132.399L4.48349 111.714L22.02 122.828Z" fill="#E9D9F5" stroke="#D9B5F4" stroke-miterlimit="10" stroke-linecap="round"/>
<path d="M107.102 124.774L61.9611 159.934L55.5236 105.116L107.102 124.774Z" fill="#D9FCF3"/>
<path d="M155.998 52.7506L186.05 47.004L175.763 74.6664L155.998 52.7506Z" stroke="#E3F8FF" stroke-miterlimit="10" stroke-linecap="round"/>
<path d="M85.1307 28.8754L118.554 9.44115L117.873 46.733L85.1307 28.8754Z" fill="#E9D9F5"/>
<path d="M174.693 95.6897L214.243 105.981L185.977 133.458L174.693 95.6897Z" fill="#E9D9F5" stroke="#D9B5F4" stroke-miterlimit="10" stroke-linecap="round"/>
<path d="M88.4385 11.7283L69.3011 21.5719L70.7511 0.858002L88.4385 11.7283Z" stroke="#E3F8FF" stroke-miterlimit="10" stroke-linecap="round"/>
<path d="M42.5603 35.3302L35.9817 41.9088L33.8407 33.1892L42.5603 35.3302Z" stroke="#D9FCF3" stroke-miterlimit="10" stroke-linecap="round"/>
<path d="M196.888 48.746L213.101 57.7478L197.564 66.6231L196.888 48.746Z" fill="#D9FCF3"/>
<path d="M14.7255 48.746L30.9385 57.7478L15.4067 66.6231L14.7255 48.746Z" fill="#E3F8FF"/>
<path d="M46.955 17.6945L50.6531 21.3925L45.7532 22.5944L46.955 17.6945Z" fill="#E3F8FF"/>
<path d="M130.297 3.87126L133.995 7.56931L129.095 8.77118L130.297 3.87126Z" fill="#D9FCF3"/>
<path d="M177.764 21.5021L184.348 28.0856L186.484 19.366L177.764 21.5021Z" fill="#E9D9F5"/>
<path d="M169.821 11.2113L166.123 14.9094L171.023 16.1112L169.821 11.2113Z" fill="#E3F8FF"/>
<path d="M144.902 36.4842C144.902 36.4842 153.661 33.6717 157.519 43.5154C161.378 53.359 166.837 46.9458 168.506 54.7701C170.175 62.5943 176.511 59.2564 175.367 66.3751C175.367 66.3751 175.98 63.1977 172.112 61.5774C168.244 59.9571 167.407 59.1445 167.407 59.1445C167.407 59.1445 173.869 61.738 173.869 67.7132C170.268 67.7132 168.03 67.4067 164.55 70.8809C161.071 74.3551 148.007 77.5909 141.953 72.3406C135.9 67.0904 135.74 68.8032 135.74 68.8032C135.74 68.8032 131.935 65.0321 135.253 57.5825C138.732 49.8799 129.468 39.1215 144.902 36.4842Z" fill="#010101"/>
<path d="M100.733 96.5874C100.733 96.5874 114.183 98.451 122.756 97.22C131.33 95.9889 153.698 73.0318 148.876 64.8231C145.017 58.2688 135.738 68.9153 120.017 87.6926L101.634 93.2494C101.634 93.2494 98.5486 89.7071 95.3079 91.4783C92.0673 93.2494 88.9823 94.0474 90.1209 95.1958C91.2595 96.3441 95.3079 95.551 95.3079 95.551C95.3079 95.551 97.191 96.5874 100.733 96.5874Z" fill="#D38254"/>
<path d="M143.22 82.1686C143.22 82.1686 152.733 71.1571 148.392 64.2866C144.052 57.416 131.026 73.0451 131.026 73.0451C131.026 73.0451 135.741 79.867 143.22 82.1686Z" fill="#E3F8FF"/>
<path d="M150.1 120.341C150.1 108.429 145.628 105.874 145.628 95.5248C145.628 85.1751 152.285 82.168 152.285 82.168H180.804C180.804 82.168 174.137 89.1554 174.137 95.5005C174.137 105.855 178.614 108.41 178.614 120.316C178.657 122.446 178.039 124.537 176.845 126.301C175.652 128.066 173.941 129.417 171.948 130.17H143.434C145.423 129.418 147.131 128.071 148.324 126.311C149.518 124.552 150.138 122.466 150.1 120.341Z" fill="#9065B0"/>
<path d="M147.539 131.816L148.707 131.606L156.619 175.861H155.417L147.539 131.816Z" fill="#396BB2"/>
<path d="M170.594 131.816L171.757 131.606L179.673 175.861H178.471L170.594 131.816Z" fill="#396BB2"/>
<path d="M153.453 131.816L152.286 131.606L144.374 175.861H145.576L153.453 131.816Z" fill="#396BB2"/>
<path d="M130.399 131.816L129.231 131.606L121.319 175.861H122.521L130.399 131.816Z" fill="#396BB2"/>
<path d="M129.644 130.191H171.947V132.425H129.644V130.191Z" fill="#010101"/>
<path d="M148.391 110.547C148.391 110.547 105.386 105.156 97.8396 126.838C94.487 133.066 99.4356 167.809 99.4356 167.809L104.404 166.724C104.404 166.724 111.255 143.951 106.7 132.21C144.318 130.75 145.379 127.558 148.391 110.547Z" fill="#244370"/>
<path d="M116.578 122.668C116.578 122.668 106.36 126.697 103.873 129.198C101.387 131.699 104.491 141.99 101.927 163.609" stroke="#396BB2" stroke-width="0.5" stroke-miterlimit="10" stroke-linecap="round"/>
<path d="M105.373 175.865C105.373 175.865 106.871 171.758 107.552 162.216C101.139 161.973 97.2223 163.354 97.2223 163.354C97.3926 164.848 97.9814 167.67 95.7625 170.546C93.9573 172.862 92.5024 172.833 91.1205 173.159C89.7386 173.485 88.6292 174.419 88.4686 175.865H105.373Z" fill="#9065B0"/>
<path d="M110.242 126.84C113.648 117.108 125.589 113.021 137.714 111.493C137.846 110.003 138.097 108.525 138.464 107.075C147.84 108.685 157.41 108.832 166.832 107.513C168.384 114.777 168.004 119.098 166.316 121.974C162.968 129.643 152.521 131.146 124.582 132.192L138.658 160.623L134.552 164.793C134.552 164.793 106.889 133.068 110.242 126.84Z" fill="#29497C"/>
<path d="M156.966 108.295C156.966 108.295 163.612 121.545 143.745 124.265C123.878 126.985 115.557 127.569 116.793 131.306C118.029 135.043 133.824 158.18 133.824 158.18" stroke="#396BB2" stroke-width="0.5" stroke-miterlimit="10" stroke-linecap="round"/>
<path d="M149.658 108.295C149.658 108.295 150.325 109.755 148.914 111.974C146.072 116.445 148.393 120.246 152.709 121.579" stroke="#396BB2" stroke-width="0.5" stroke-miterlimit="10" stroke-linecap="round"/>
<path d="M144.055 164.292C144.055 164.292 142.245 160.346 136.109 153.004C131.326 157.276 129.468 160.993 129.468 160.993L130.553 161.889C132.947 163.869 134.387 167.84 132.883 170.769C132.314 171.888 131.044 172.793 131.448 174.588C131.477 174.715 132.066 175.863 132.066 175.863L144.055 164.292Z" fill="#9065B0"/>
<path d="M167.22 109.523C161.904 110.297 156.533 110.622 151.163 110.496C142.307 110.282 138.054 108.983 138.054 108.983" stroke="#396BB2" stroke-width="0.5" stroke-miterlimit="10" stroke-linecap="round"/>
<path d="M137.647 107.072C137.887 106.137 138.178 105.216 138.518 104.313C143.52 91.1265 134.324 92.2165 134.324 80.9569C134.324 77.5508 143.082 55.6545 156.006 63.1041C156.006 63.1041 159.86 58.8124 165.154 82.7037C166.954 90.8297 169.256 100.167 168.935 107.928C163.791 108.639 150.639 109.281 137.647 107.072Z" fill="#E3F8FF"/>
<path d="M146.518 78.0113C145.451 79.134 144.068 79.9046 142.552 80.2204C140.776 80.5513 138.762 80.1474 139.778 76.0699C140.99 71.204 145.817 62.6255 145.817 62.6255L153.476 63.5257C153.476 63.5257 151.486 73.0141 146.518 78.0113Z" fill="#D38254"/>
<path d="M157.374 66.2895L153.457 49.8819L144.699 57.7062L146.407 67.5692C146.407 67.5692 150.781 71.0629 157.374 66.2895Z" fill="#D38254"/>
<path d="M145.836 38.3085C145.836 38.3085 154.716 37.1163 154.716 49.4221C154.716 53.344 154.302 56.4776 152.585 57.8984C146.829 62.6815 141.51 61.9127 139.116 57.8984C137.978 55.991 136.99 53.344 136.99 49.4221C136.975 37.1163 145.836 38.3085 145.836 38.3085Z" fill="#E29867"/>
<path d="M149.666 57.758C147.461 57.2395 146.093 55.0314 146.612 52.8261C147.13 50.6208 149.338 49.2534 151.543 49.7719C153.749 50.2903 155.116 52.4984 154.598 54.7037C154.079 56.909 151.871 58.2764 149.666 57.758Z" fill="#DB804D"/>
<path d="M140.845 53.7565C140.843 54.4828 140.647 55.1953 140.277 55.8206C139.908 56.4458 139.378 56.9612 138.743 57.3135C137.726 55.5326 137.011 53.0753 136.977 49.679C138.02 49.7361 139.002 50.1904 139.722 50.9486C140.441 51.7068 140.843 52.7114 140.845 53.7565Z" fill="#DB804D"/>
<path d="M145.327 55.9149C145.327 55.9149 143.638 54.9418 143.137 55.9149C142.65 54.9174 141.434 55.9149 141.434 55.9149C141.574 56.2688 141.812 56.5752 142.121 56.7977C142.43 57.0202 142.796 57.1495 143.176 57.1703C143.625 57.2454 144.085 57.1609 144.478 56.9316C144.871 56.7023 145.171 56.3425 145.327 55.9149Z" fill="#CA4F24"/>
<path d="M146.827 50.5126C146.472 50.5126 146.184 50.225 146.184 49.8703C146.184 49.5155 146.472 49.228 146.827 49.228C147.181 49.228 147.469 49.5155 147.469 49.8703C147.469 50.225 147.181 50.5126 146.827 50.5126Z" fill="#010101"/>
<path d="M149.098 49.0796C148.483 48.8264 147.808 48.7501 147.152 48.8592C146.495 48.9684 145.882 49.2588 145.381 49.6976" stroke="#010101" stroke-width="0.5" stroke-linecap="round" stroke-linejoin="round"/>
<path d="M139.661 49.8703C139.661 49.9973 139.623 50.1215 139.553 50.2271C139.482 50.3327 139.382 50.415 139.265 50.4637C139.147 50.5123 139.018 50.525 138.894 50.5002C138.769 50.4754 138.655 50.4143 138.565 50.3244C138.475 50.2346 138.414 50.1202 138.389 49.9956C138.364 49.871 138.377 49.7418 138.425 49.6245C138.474 49.5071 138.556 49.4068 138.662 49.3362C138.768 49.2656 138.892 49.228 139.019 49.228C139.189 49.228 139.353 49.2956 139.473 49.4161C139.593 49.5365 139.661 49.6999 139.661 49.8703Z" fill="#010101"/>
<path d="M137.57 49.0796C138.186 48.8264 138.86 48.7501 139.517 48.8592C140.174 48.9684 140.787 49.2588 141.288 49.6976" stroke="#010101" stroke-width="0.5" stroke-linecap="round" stroke-linejoin="round"/>
<path d="M141.288 47.6195C140.672 47.3663 139.998 47.2899 139.341 47.3991C138.684 47.5083 138.071 47.7986 137.57 48.2375" stroke="#010101" stroke-width="0.5" stroke-linecap="round" stroke-linejoin="round"/>
<path d="M145.381 47.6195C145.997 47.3663 146.671 47.2899 147.328 47.3991C147.984 47.5083 148.598 47.7986 149.098 48.2375" stroke="#010101" stroke-width="0.5" stroke-linecap="round" stroke-linejoin="round"/>
<path d="M146.074 55.5984C145.265 56.0336 144.365 56.2718 143.447 56.2938C142.529 56.3158 141.618 56.1209 140.789 55.7249" stroke="#010101" stroke-width="0.5" stroke-linecap="round" stroke-linejoin="round"/>
<path d="M147.236 52.4027C145.583 52.4027 144.244 51.0629 144.244 49.4102C144.244 47.7575 145.583 46.4177 147.236 46.4177C148.889 46.4177 150.229 47.7575 150.229 49.4102C150.229 51.0629 148.889 52.4027 147.236 52.4027Z" stroke="#FFCF34" stroke-width="0.5" stroke-miterlimit="10" stroke-linecap="round"/>
<path d="M139.428 52.4027C137.775 52.4027 136.436 51.0629 136.436 49.4102C136.436 47.7575 137.775 46.4177 139.428 46.4177C141.081 46.4177 142.421 47.7575 142.421 49.4102C142.421 51.0629 141.081 52.4027 139.428 52.4027Z" stroke="#FFCF34" stroke-width="0.5" stroke-miterlimit="10" stroke-linecap="round"/>
<path d="M141.55 52.971C142.328 50.9954 142.937 49.414 142.937 49.414V54.5962C142.937 54.5962 140.776 54.9173 141.55 52.971Z" fill="#DB804D"/>
<path d="M142.937 49.4112C142.937 49.4112 141.379 53.0119 141.379 53.7613C141.379 54.5106 142.197 54.5933 142.937 54.5933" stroke="#010101" stroke-width="0.5" stroke-linecap="round" stroke-linejoin="round"/>
<path d="M144.244 49.4112H142.415" stroke="#FFCF34" stroke-width="0.5" stroke-miterlimit="10" stroke-linecap="round"/>
<path d="M151.711 49.4676H150.222" stroke="#FFCF34" stroke-width="0.5" stroke-miterlimit="10" stroke-linecap="round"/>
<path d="M115.403 93.2964C115.403 93.2964 129.943 98.4494 138.521 97.2183C147.1 95.9872 164.247 73.8622 159.415 65.6389C155.552 59.0798 151.464 68.9136 135.762 87.6958L116.279 89.9487C116.279 89.9487 113.194 86.4112 109.954 88.1824C106.713 89.9536 103.628 90.7467 104.767 91.8999C105.905 93.0531 109.954 92.2503 109.954 92.2503C109.954 92.2503 111.861 93.2964 115.403 93.2964Z" fill="#E29867"/>
<path d="M157.373 82.1649C157.373 82.1649 164.097 69.3288 158.346 63.5871C151.612 56.8527 143.427 76.0534 143.427 76.0534C143.427 76.0534 149.592 81.6783 157.373 82.1649Z" fill="#E3F8FF"/>
<path d="M153.202 40.3211C153.202 40.3211 158.151 38.9586 156.209 34.6913C154.268 30.4239 146.964 30.1661 146.57 36.3943C149.192 36.8344 151.556 38.2341 153.202 40.3211Z" fill="#010101"/>
<path d="M155.46 47.6517C155.46 47.6517 148.599 49.4959 145.304 41.8468C145.961 45.1896 148.998 47.3841 148.998 47.3841C148.998 47.3841 145.197 46.9462 142.901 42.5523C142.706 43.446 142.767 44.3766 143.077 45.2372C143.386 46.0979 143.933 46.8537 144.652 47.4182C144.652 47.4182 138.4 48.1042 137.787 44.2116C136.731 45.8514 137.787 48.1675 137.787 48.1675C137.787 48.1675 135.5 47.1943 136.439 43.2433C137.378 39.2922 142.351 36.4603 149.007 37.3215C155.664 38.1828 155.46 47.6517 155.46 47.6517Z" fill="#010101"/>
<path d="M150.279 46.2424C150.279 46.2424 153.081 48.7921 151.062 54.4219C149.043 60.0517 144.658 62.5381 147.052 69.253C150.225 64.3872 155.461 59.8717 159.421 64.358C163.679 69.1752 158.541 44.4858 150.279 46.2424Z" fill="#010101"/>
<path d="M157.608 81.4009C157.608 81.4009 148.149 79.732 143.867 74.8223" stroke="#396BB2" stroke-width="0.5" stroke-miterlimit="10" stroke-linecap="round" stroke-dasharray="2 2"/>
<path d="M135.438 76.4097C135.438 76.4097 132.937 74.3563 131.672 72.3419" stroke="#396BB2" stroke-width="0.5" stroke-miterlimit="10" stroke-linecap="round" stroke-dasharray="2 2"/>
<path d="M160.672 70.6083C160.672 70.6083 159.504 77.2988 157.315 82.3934C156.823 82.3925 156.333 82.3353 155.855 82.2231" stroke="#396BB2" stroke-width="0.5" stroke-miterlimit="10" stroke-linecap="round"/>
<path d="M142.139 65.0695C142.139 65.0695 136.942 71.7843 135.292 77.2" stroke="#396BB2" stroke-width="0.5" stroke-miterlimit="10" stroke-linecap="round"/>
<path d="M168.672 106.728L168.184 106.767" stroke="#396BB2" stroke-width="0.5" stroke-miterlimit="10" stroke-linecap="round"/>
<path d="M167.186 106.843C163.104 107.126 151.241 107.705 139.602 106.006" stroke="#396BB2" stroke-width="0.5" stroke-miterlimit="10" stroke-linecap="round" stroke-dasharray="2.07 2.07"/>
<path d="M139.103 105.933L138.615 105.86" stroke="#396BB2" stroke-width="0.5" stroke-miterlimit="10" stroke-linecap="round"/>
<path d="M142.982 164.022L132.014 174.586" stroke="#FFF4D4" stroke-width="0.5" stroke-miterlimit="10" stroke-linecap="round"/>
<path d="M105.05 174.965H89.6054" stroke="#FFF4D4" stroke-width="0.5" stroke-miterlimit="10" stroke-linecap="round"/>
<path d="M199.512 97.9362H201.395V175.863H199.512V97.9362Z" fill="#396BB2"/>
<path d="M43.5383 97.9362H45.4214V175.863H43.5383V97.9362Z" fill="#396BB2"/>
<path d="M43.5369 97.1357H201.395V99.5248H43.5369V97.1357Z" fill="#010101"/>
<path d="M79.149 95.4698H130.727C130.947 95.4711 131.157 95.5593 131.312 95.7152C131.467 95.8711 131.554 96.082 131.554 96.3018C131.554 96.5217 131.467 96.7326 131.312 96.8885C131.157 97.0444 130.947 97.1326 130.727 97.1339H79.149C78.9283 97.1339 78.7167 97.0462 78.5606 96.8902C78.4046 96.7342 78.3169 96.5225 78.3169 96.3018C78.3169 96.0812 78.4046 95.8695 78.5606 95.7135C78.7167 95.5575 78.9283 95.4698 79.149 95.4698Z" fill="#BEF0FC"/>
<path d="M72.903 70.2073H112.574C113.405 70.2422 114.201 70.5458 114.844 71.0722C115.488 71.5987 115.943 72.3196 116.141 73.1268L120.656 94.2008C120.754 94.5501 120.768 94.9176 120.696 95.2732C120.625 95.6288 120.471 95.9626 120.246 96.2472C120.021 96.5318 119.732 96.7593 119.403 96.911C119.073 97.0627 118.712 97.1344 118.35 97.1203H78.6788C77.8487 97.0858 77.0524 96.7824 76.4099 96.2558C75.7674 95.7292 75.3136 95.0079 75.117 94.2008L70.6015 73.1414C70.5 72.7915 70.4833 72.4224 70.5526 72.0648C70.622 71.7071 70.7754 71.3711 71.0003 71.0845C71.2251 70.7978 71.5149 70.5688 71.8458 70.4162C72.1766 70.2637 72.539 70.1921 72.903 70.2073Z" fill="#BEF0FC"/>
<path d="M93.1799 75.0902C92.8196 75.2801 92.5084 75.5514 92.2711 75.8824C92.0338 76.2135 91.8768 76.5953 91.8127 76.9976C91.7486 77.3999 91.7791 77.8115 91.9017 78.2C92.0244 78.5884 92.2358 78.943 92.5193 79.2355C92.8028 79.528 93.1505 79.7505 93.5349 79.8853C93.9193 80.0201 94.3298 80.0635 94.7339 80.0121C95.138 79.9606 95.5245 79.8158 95.8629 79.589C96.2013 79.3622 96.4822 79.0597 96.6833 78.7055C96.6254 79.3378 96.3873 79.9403 95.9972 80.4413C95.6072 80.9423 95.0815 81.321 94.4827 81.5322C93.8839 81.7435 93.2371 81.7785 92.619 81.6331C92.0009 81.4877 91.4374 81.1681 90.9955 80.7121C90.5537 80.2561 90.2519 79.6829 90.126 79.0605C90.0002 78.4381 90.0555 77.7927 90.2855 77.2009C90.5154 76.609 90.9104 76.0955 91.4234 75.7214C91.9365 75.3473 92.5461 75.1282 93.1799 75.0902Z" fill="white"/>
<path d="M60.3198 88.8151C61.6874 88.81 62.9976 88.2644 63.9647 87.2973C64.9317 86.3302 65.4773 85.0201 65.4824 83.6524V77.0981C65.4735 75.733 64.9262 74.4266 63.9595 73.4626C62.9929 72.4987 61.6849 71.9551 60.3198 71.95C58.9517 71.9539 57.6408 72.4991 56.6735 73.4664C55.7061 74.4338 55.161 75.7447 55.1571 77.1127V83.667C55.1648 85.0325 55.7116 86.3397 56.6786 87.3039C57.6455 88.2681 58.9542 88.8113 60.3198 88.8151Z" fill="#53EECE"/>
<path d="M59.9929 71.7753L60.606 72.3835" stroke="#27AC99" stroke-width="0.5" stroke-linecap="round" stroke-linejoin="round"/>
<path d="M59.9929 80.0229L60.606 80.6312" stroke="#27AC99" stroke-width="0.5" stroke-linecap="round" stroke-linejoin="round"/>
<path d="M60.606 75.8935L59.9929 76.5066" stroke="#27AC99" stroke-width="0.5" stroke-linecap="round" stroke-linejoin="round"/>
<path d="M57.1953 82.0511L56.5822 81.438" stroke="#27AC99" stroke-width="0.5" stroke-linecap="round" stroke-linejoin="round"/>
<path d="M57.1953 73.8034L56.5822 73.1903" stroke="#27AC99" stroke-width="0.5" stroke-linecap="round" stroke-linejoin="round"/>
<path d="M56.5822 77.9252L57.1953 77.317" stroke="#27AC99" stroke-width="0.5" stroke-linecap="round" stroke-linejoin="round"/>
<path d="M64.0139 73.1903L63.4057 73.8034" stroke="#27AC99" stroke-width="0.5" stroke-linecap="round" stroke-linejoin="round"/>
<path d="M64.0139 81.438L63.4057 82.0511" stroke="#27AC99" stroke-width="0.5" stroke-linecap="round" stroke-linejoin="round"/>
<path d="M63.4057 77.317L64.0139 77.9252" stroke="#27AC99" stroke-width="0.5" stroke-linecap="round" stroke-linejoin="round"/>
<path d="M67.8076 86.5713H52.7916C52.6942 85.6451 52.6455 84.7145 52.6456 83.7832H67.9487C67.9532 84.7145 67.9061 85.6453 67.8076 86.5713Z" fill="#29497C"/>
<path d="M66.973 90.5684H53.6163C53.3173 89.6591 53.0943 88.7265 52.9497 87.7802H67.6445C67.4982 88.7266 67.2736 89.6592 66.973 90.5684Z" fill="#29497C"/>
<path d="M64.5787 94.5313V94.5654H56.0197V94.5313C55.1887 93.7567 54.5262 92.8192 54.0734 91.7773H66.5056C66.0603 92.8184 65.4042 93.7561 64.5787 94.5313Z" fill="#29497C"/>
<path d="M56.0186 95.7743H64.5776V97.3021H56.0186V95.7743Z" fill="#29497C"/>
<path d="M67.9149 82.5739C67.9149 82.5739 67.949 83.0605 67.949 83.7807H52.6459C52.6459 83.0411 52.6848 82.5739 52.6848 82.5739H67.9149Z" fill="#E3F8FF"/>
<path d="M67.6475 87.7825H52.9527C52.8845 87.3673 52.831 86.9635 52.7921 86.571H67.8081C67.7692 86.9667 67.7156 87.3706 67.6475 87.7825Z" fill="#E3F8FF"/>
<path d="M66.5043 91.7775H54.0916C53.9164 91.3834 53.7558 90.9795 53.605 90.5708H66.9763C66.8405 90.9811 66.683 91.384 66.5043 91.7775Z" fill="#E3F8FF"/>
<path d="M56.0186 94.5649H64.5776V95.7717H56.0186V94.5649Z" fill="#E3F8FF"/>
<path d="M90.3202 45.089C92.045 45.4595 93.6191 46.3385 94.8392 47.6126C96.0594 48.8868 96.8695 50.4975 97.1649 52.2367C97.4604 53.9759 97.2276 55.7637 96.4967 57.3693C95.7658 58.9749 94.5702 60.3244 93.0645 61.2437L92.9283 66.0706L89.5222 62.4844C88.2476 62.6426 86.9538 62.5207 85.7311 62.1272C84.5085 61.7337 83.3864 61.0782 82.4433 60.2063C81.5002 59.3343 80.7587 58.2671 80.2707 57.0791C79.7826 55.891 79.5597 54.6107 79.6175 53.3277C79.6753 52.0446 80.0125 50.7895 80.6054 49.6502C81.1984 48.5108 82.0328 47.5146 83.0505 46.7311C84.0682 45.9475 85.2447 45.3955 86.4978 45.1136C87.7508 44.8317 89.0504 44.8266 90.3056 45.0988L90.3202 45.089Z" fill="#396BB2"/>
<path d="M93.6138 54.0619V53.5753L91.0349 51.8382V52.4854L93.0688 53.8332V53.8575L91.0349 55.2054V55.8185L93.6138 54.0619Z" fill="white"/>
<path d="M86.8257 51.2236H86.237L89.6869 57.1989H90.2708L86.8257 51.2236Z" fill="white"/>
<path d="M85.4675 55.1808L83.4336 53.8329V53.8086L85.4675 52.4851V51.872L82.8935 53.6091V54.0957L85.4675 55.8279V55.1808Z" fill="white"/>
<path d="M20.6185 96.9871C25.8882 94.4812 32.3306 95.975 34.7051 109.843C37.0797 123.71 30.9682 125.851 33.6979 133.929C36.4276 142.006 35.581 151.601 35.581 151.601H28.8175C13.3927 132.435 28.6228 129.564 20.6185 119.798C12.6142 110.032 15.3439 99.493 20.6185 96.9871Z" fill="#36CCB1"/>
<path d="M20.619 96.9891C20.619 96.9891 27.655 102.882 27.655 117.581C27.655 132.281 22.8184 135.702 32.1365 150.183" stroke="#27AC99" stroke-width="0.5" stroke-miterlimit="10" stroke-linecap="round"/>
<path d="M24.6818 102.866C26.2707 101.134 27.306 98.9668 27.6548 96.6425" stroke="#27AC99" stroke-width="0.5" stroke-miterlimit="10" stroke-linecap="round"/>
<path d="M26.3806 107.779C26.3806 107.779 22.5415 109.536 15.5882 107.779" stroke="#27AC99" stroke-width="0.5" stroke-miterlimit="10" stroke-linecap="round"/>
<path d="M27.5666 114.918C30.5311 113.108 32.9257 110.499 34.4761 107.39" stroke="#27AC99" stroke-width="0.5" stroke-miterlimit="10" stroke-linecap="round"/>
<path d="M27.5786 120.723C27.5786 120.723 24.518 120.689 19.477 118.291" stroke="#27AC99" stroke-width="0.5" stroke-miterlimit="10" stroke-linecap="round"/>
<path d="M26.7918 128.944C26.7918 128.944 28.8501 126.803 31.0203 124.633" stroke="#27AC99" stroke-width="0.5" stroke-miterlimit="10" stroke-linecap="round"/>
<path d="M26.3806 134.003C26.3806 134.003 24.3467 134.12 22.0014 131.891" stroke="#27AC99" stroke-width="0.5" stroke-miterlimit="10" stroke-linecap="round"/>
<path d="M27.3105 140.436C28.34 139.474 29.1672 138.316 29.7434 137.03" stroke="#27AC99" stroke-width="0.5" stroke-miterlimit="10" stroke-linecap="round"/>
<path d="M28.9033 144.498C27.9411 144.684 26.9502 144.664 25.9963 144.438C25.0425 144.212 24.1476 143.786 23.3709 143.189" stroke="#27AC99" stroke-width="0.5" stroke-miterlimit="10" stroke-linecap="round"/>
<path d="M40.7244 151.749C40.7244 151.749 46.5634 145.331 43.8482 137.911C41.1331 130.49 47.556 128.451 48.9233 122.826C50.2906 117.202 46.977 112.876 46.0038 107.329C45.0306 101.782 52.8403 97.4997 52.8403 89.583C52.8403 81.6663 39.3668 76.9853 33.7029 88.1232C28.0391 99.2612 35.8536 109.83 31.9464 116.345C28.0391 122.861 26.1074 132.641 29.2118 140.451C32.3162 148.26 30.764 151.749 30.764 151.749H40.7244Z" fill="#53EECE"/>
<path d="M46.2473 81.9284C46.2473 81.9284 39.4887 87.9572 39.4887 99.6839C39.4887 111.411 44.7486 117.576 37.1093 127.001C29.4699 136.426 41.5566 140.776 35.7079 153.617" stroke="#27AC99" stroke-width="0.5" stroke-miterlimit="10" stroke-linecap="round"/>
<path d="M41.0126 90.7766C41.0126 90.7766 45.0075 92.4991 52.8318 90.0127" stroke="#27AC99" stroke-width="0.5" stroke-miterlimit="10" stroke-linecap="round"/>
<path d="M39.5471 97.9165C39.5471 97.9165 34.1412 97.97 32.2483 91.9266" stroke="#27AC99" stroke-width="0.5" stroke-miterlimit="10" stroke-linecap="round"/>
<path d="M40.4037 108.812C40.4037 108.812 43.8098 108.866 45.9119 106.33" stroke="#27AC99" stroke-width="0.5" stroke-miterlimit="10" stroke-linecap="round"/>
<path d="M41.2439 115.331C41.2439 115.331 37.1128 116.65 32.972 113.22" stroke="#27AC99" stroke-width="0.5" stroke-miterlimit="10" stroke-linecap="round"/>
<path d="M38.7111 124.798C38.7111 124.798 43.1828 126.472 48.6375 123.796" stroke="#27AC99" stroke-width="0.5" stroke-miterlimit="10" stroke-linecap="round"/>
<path d="M34.9243 130.777C34.9243 130.777 30.0001 128.344 28.4722 125.05" stroke="#27AC99" stroke-width="0.5" stroke-miterlimit="10" stroke-linecap="round"/>
<path d="M36.4791 141.225C36.4791 141.225 39.8317 141.96 43.8655 137.926" stroke="#27AC99" stroke-width="0.5" stroke-miterlimit="10" stroke-linecap="round"/>
<path d="M30.587 144.75C30.587 144.75 32.6988 147.207 37.3457 147.207" stroke="#27AC99" stroke-width="0.5" stroke-miterlimit="10" stroke-linecap="round"/>
<path d="M19.6611 148.133H48.7588C48.7588 148.133 48.8562 149.5 48.8172 151.597H19.6221C19.5589 149.5 19.6611 148.133 19.6611 148.133Z" fill="#9065B0"/>
<path d="M48.1567 158.521C47.9594 159.695 47.7028 160.858 47.3879 162.005C47.0637 163.178 46.6589 164.328 46.1763 165.445C45.6455 166.677 44.978 167.846 44.1862 168.929C43.299 170.166 42.1924 171.23 40.9212 172.068V172.369H27.4477V172.068C26.1776 171.229 25.0712 170.165 24.1827 168.929C23.3943 167.845 22.7284 166.676 22.1974 165.445C21.7127 164.329 21.3078 163.179 20.9858 162.005C20.6694 160.858 20.4111 159.695 20.2122 158.521C20.0127 157.329 19.8667 156.171 19.7694 155.081H48.6433C48.5314 156.171 48.3854 157.329 48.1567 158.521Z" fill="#9065B0"/>
<path d="M48.6393 155.081H19.8042C19.6875 153.796 19.6339 152.609 19.6145 151.597H48.8096C48.795 152.609 48.7366 153.796 48.6393 155.081Z" fill="#29497C"/>
<path d="M27.4688 172.369H40.9424V175.857H27.4688V172.369Z" fill="#29497C"/>
</svg>
